<?xml version="1.0" encoding="iso-8859-1"?>
<!-- Generator: Adobe Illustrator 19.0.0, SVG Export Plug-In . SVG Version: 6.00 Build 0)  -->
<svg version="1.1" id="Layer_1" xmlns="http://www.w3.org/2000/svg" xmlns:xlink="http://www.w3.org/1999/xlink" x="0px" y="0px"
	 viewBox="0 0 511.992 511.992" style="enable-background:new 0 0 511.992 511.992;" xml:space="preserve">
<path style="fill:#5D9CEC;" d="M511.992,437.34c0,29.438-114.607,53.312-255.996,53.312C114.623,490.652,0,466.777,0,437.34
	c0-29.468,114.623-53.342,255.996-53.342C397.385,383.998,511.992,407.872,511.992,437.34z"/>
<path id="SVGCleanerId_0" style="fill:#E2A437;" d="M363.432,410.247H148.56c0,0-55.999-260.91,107.436-260.91
	C419.432,149.337,363.432,410.247,363.432,410.247z"/>
<g>
	<path id="SVGCleanerId_0_1_" style="fill:#E2A437;" d="M363.432,410.247H148.56c0,0-55.999-260.91,107.436-260.91
		C419.432,149.337,363.432,410.247,363.432,410.247z"/>
</g>
<path style="fill:#DBADA2;" d="M255.996,490.652c60.546,0,116.17-4.375,159.998-11.688v-34.5c0-16.625-10.562-31.374-26.281-36.624
	l-1.031-0.281c-17.422-4.75-30.203-9.25-37.891-12.218c-27.249-10.469-34.358-18.031-36.171-21.594
	c-0.062-0.156-0.109-0.281-0.172-0.406l-0.25-33.344l-116.404,1.344l-0.234,32c-0.062,0.125-0.109,0.25-0.172,0.406
	c-1.812,3.562-8.906,11.125-36.172,21.625c-7.671,2.937-20.468,7.437-37.733,12.124l-1.188,0.344
	c-15.703,5.25-26.28,19.999-26.28,36.624v34.5C139.842,486.277,195.466,490.652,255.996,490.652z"/>
<path style="fill:#EAC6BB;" d="M346.666,279.124c0,58.905-56.154,115.53-90.67,115.53c-34.5,0-90.655-56.625-90.655-115.53
	c0-58.929,40.594-97.787,90.655-97.787C306.074,181.337,346.666,220.195,346.666,279.124z"/>
<path style="fill:#F6BB42;" d="M276.34,206.164l93.545,63.875c-8.125-61.828-36.249-120.702-113.889-120.702L276.34,206.164z"/>
<path style="fill:#FFCE54;" d="M271.527,237.32c30.406-22.188,54.515-43.593,65.279-53.499
	c-17.718-20.922-43.561-34.484-80.811-34.484c-91.062,0-113.998,80.999-116.451,152.724
	C176.013,296.405,220.355,274.686,271.527,237.32z"/>
<g>
	<path style="fill:#E6E9ED;" d="M60.046,187.337c3.656-11.625,11.5-19.781,11.578-19.875l0,0c1.875-1.922,3.047-4.547,3.047-7.453
		c0-5.89-4.781-10.671-10.672-10.671c-2.969,0-5.641,1.219-7.578,3.172l0,0c-0.453,0.453-11.078,11.328-16.437,27.531
		c-5.156,15.641-6.5,39.108,16.468,62.155C68.733,254.54,72.499,267.555,67.968,282c-3.672,11.625-11.5,19.781-11.547,19.844l0,0
		c-1.906,1.938-3.078,4.562-3.078,7.5c0,5.875,4.766,10.655,10.656,10.655c2.969,0,5.656-1.219,7.594-3.156l0,0
		c0.453-0.469,11.078-11.343,16.422-27.562c5.172-15.625,6.5-39.085-16.453-62.132C59.265,214.805,55.499,201.789,60.046,187.337z"
		/>
	<path style="fill:#E6E9ED;" d="M455.539,227.148c-12.28-12.344-16.046-25.359-11.515-39.812
		c3.656-11.625,11.499-19.781,11.577-19.875l0,0c1.891-1.922,3.047-4.547,3.047-7.453c0-5.89-4.766-10.671-10.655-10.671
		c-2.969,0-5.656,1.219-7.594,3.172l0,0c-0.453,0.453-11.078,11.328-16.437,27.531c-5.156,15.641-6.484,39.108,16.468,62.155
		c12.297,12.344,16.062,25.359,11.516,39.804c-3.656,11.625-11.5,19.781-11.547,19.844l0,0c-1.906,1.938-3.078,4.562-3.078,7.5
		c0,5.875,4.781,10.655,10.672,10.655c2.969,0,5.64-1.219,7.577-3.156l0,0c0.453-0.469,11.078-11.343,16.438-27.562
		C477.164,273.655,478.508,250.195,455.539,227.148z"/>
	<path style="fill:#E6E9ED;" d="M260.73,45.917c1.047-4.016,3.516-7.141,3.547-7.172l-0.047,0.047
		c1.516-1.843,2.438-4.203,2.438-6.781c0-5.891-4.781-10.671-10.672-10.671c-3.297,0-6.25,1.5-8.203,3.859l0,0
		c-0.016,0-0.016,0.016-0.016,0.016l-0.016,0.016c-0.562,0.688-5.062,6.297-7.391,14.25c-3.453,11.812-0.594,23.109,8.078,31.812
		c3.078,3.094,3.922,6.281,2.812,10.609c-1.078,4.188-3.594,7.453-3.625,7.484l0.062-0.078l0,0
		c-1.484,1.844-2.359,4.156-2.359,6.703c0,5.891,4.766,10.656,10.656,10.656c3.359,0,6.344-1.547,8.312-3.969l0,0
		c0.5-0.625,5-6.359,7.328-14.468c3.438-11.953,0.562-23.312-8.078-32C260.48,53.151,259.637,50.073,260.73,45.917z M264.23,38.792
		l-0.016,0.016l0,0L264.23,38.792z"/>
</g>
<g>
</g>
<g>
</g>
<g>
</g>
<g>
</g>
<g>
</g>
<g>
</g>
<g>
</g>
<g>
</g>
<g>
</g>
<g>
</g>
<g>
</g>
<g>
</g>
<g>
</g>
<g>
</g>
<g>
</g>
</svg>
