<?xml version="1.0" encoding="iso-8859-1"?>
<!-- Generator: Adobe Illustrator 19.0.0, SVG Export Plug-In . SVG Version: 6.00 Build 0)  -->
<svg version="1.1" id="Layer_1" xmlns="http://www.w3.org/2000/svg" xmlns:xlink="http://www.w3.org/1999/xlink" x="0px" y="0px"
	 viewBox="0 0 512.001 512.001" style="enable-background:new 0 0 512.001 512.001;" xml:space="preserve">
<path style="fill:#DE3205;" d="M232.879,0.321c-2.133-0.728-4.493-0.195-6.107,1.378c-1.614,1.573-2.209,3.919-1.535,6.07
	c7.1,22.639,13.761,78.631-57.144,146.856c-80.111,77.084-92.184,202.062,35.172,232.812s260.341-38.191,196.175-199.134
	C344.447,50.361,263.275,10.692,232.879,0.321z"/>
<path style="fill:#9D2217;" d="M399.441,188.301C357.425,82.914,300.132,34.892,261.874,13.468V394.57
	C366.965,394.712,453.706,324.412,399.441,188.301z"/>
<path style="fill:#F7DC4D;" d="M301.338,287.868c-33.33-25.25-33.219-59.489-29.943-78.301c0.41-2.356-0.622-4.73-2.625-6.037
	c-2.003-1.307-4.592-1.294-6.582,0.03c-21.906,14.576-64.052,48.555-61.881,93.091c1.908,39.11,17.556,71.335,34.684,96.368
	c19.274,2.163,38.29,2.057,56.336-0.324C306.151,372.29,340.199,317.308,301.338,287.868z"/>
<path style="fill:#EDA637;" d="M301.338,287.868c-33.33-25.25-33.219-59.489-29.943-78.301c0.41-2.356-0.622-4.73-2.625-6.037
	c-2.003-1.307-4.592-1.294-6.582,0.032c-0.102,0.067-0.211,0.142-0.313,0.212v190.774c10.018,0.017,19.874-0.586,29.452-1.849
	C306.151,372.29,340.199,317.308,301.338,287.868z"/>
<path style="fill:#A16125;" d="M322.263,472.122l-253.819-64.6c-9.057-2.305-14.529-11.516-12.225-20.571l8.232-32.344
	c2.305-9.057,11.514-14.529,20.571-12.225l253.819,64.599c9.057,2.305,14.529,11.516,12.225,20.571l-8.232,32.344
	C340.529,468.954,331.319,474.426,322.263,472.122z"/>
<path style="fill:#5E3C16;" d="M60.337,370.779l-4.116,16.172c-2.305,9.057,3.168,18.266,12.225,20.571l253.819,64.6
	c9.057,2.304,18.266-3.168,20.571-12.225l4.116-16.172L60.337,370.779z"/>
<path style="fill:#7E4F1F;" d="M443.148,423.495L186.74,479.084c-9.01,1.954-17.898-3.767-19.851-12.777l-7.167-33.062
	c-1.954-9.01,3.767-17.898,12.777-19.852l256.409-55.588c9.01-1.954,17.898,3.767,19.851,12.777l7.167,33.062
	C457.879,412.654,452.158,421.542,443.148,423.495z"/>
<path style="fill:#C27526;" d="M448.758,370.582c-1.954-9.01-10.841-14.731-19.852-12.777l-256.409,55.588
	c-9.01,1.954-14.731,10.841-12.777,19.851l3.691,17.027l289.037-62.662L448.758,370.582z"/>
<path style="fill:#A16125;" d="M378.689,511.95l-261.607-19.939c-9.192-0.7-16.077-8.72-15.376-17.914l2.571-33.732
	c0.7-9.192,8.72-16.077,17.914-15.376l261.607,19.939c9.192,0.7,16.077,8.72,15.376,17.914l-2.571,33.732
	C395.901,505.768,387.881,512.651,378.689,511.95z"/>
<path style="fill:#7E4F1F;" d="M103.004,457.078l-1.297,17.02c-0.7,9.194,6.183,17.212,15.376,17.914l261.607,19.94
	c9.192,0.7,17.212-6.184,17.914-15.376l1.297-17.02L103.004,457.078z"/>
<g>
</g>
<g>
</g>
<g>
</g>
<g>
</g>
<g>
</g>
<g>
</g>
<g>
</g>
<g>
</g>
<g>
</g>
<g>
</g>
<g>
</g>
<g>
</g>
<g>
</g>
<g>
</g>
<g>
</g>
</svg>
