<svg xmlns="http://www.w3.org/2000/svg" viewBox="0 0 64 64"><path fill="#bdfdff" d="M3,16H61a0,0,0,0,1,0,0V59a2,2,0,0,1-2,2H5a2,2,0,0,1-2-2V16A0,0,0,0,1,3,16Z"/><rect width="38" height="15" x="23" y="42" fill="#cf9e76"/><path fill="#957856" d="M25,33H59a2,2,0,0,1,2,2v7a0,0,0,0,1,0,0H23a0,0,0,0,1,0,0V35A2,2,0,0,1,25,33Z"/><polygon fill="#d8d7da" points="55 33 55 38 53 38 51 38 51 33 55 33"/><polygon fill="#d8d7da" points="33 33 33 38 31 38 29 38 29 33 33 33"/><rect width="5" height="6" x="18" y="46" fill="#91dc5a"/><path fill="#91dc5a" d="M18,34h5.27A2,2,0,0,0,23,35v5H18Z"/><rect width="6" height="6" x="7" y="46" fill="#91dc5a"/><rect width="6" height="6" x="7" y="34" fill="#91dc5a"/><rect width="6" height="6" x="40" y="22" fill="#ff5023"/><rect width="6" height="6" x="7" y="22" fill="#91dc5a"/><rect width="6" height="6" x="18" y="22" fill="#91dc5a"/><rect width="6" height="6" x="51" y="22" fill="#ff5023"/><rect width="6" height="6" x="29" y="22" fill="#ff5023"/><path fill="#006df0" d="M61,11v5H3V11A2.006,2.006,0,0,1,5,9H59A2.006,2.006,0,0,1,61,11Z"/><path fill="#acabb1" d="M56 9v2a1 1 0 0 1-1 1H52a1 1 0 0 1-1-1V4a1 1 0 0 1 1-1h3a1 1 0 0 1 1 1zM13 9v2a1 1 0 0 1-1 1H9a1 1 0 0 1-1-1V4A1 1 0 0 1 9 3h3a1 1 0 0 1 1 1z"/><rect width="8" height="6" x="27" y="38" fill="#e9e9ea"/><rect width="8" height="6" x="49" y="38" fill="#e9e9ea"/><path fill="#957856" d="M61,57v2a2.006,2.006,0,0,1-2,2H25a2.006,2.006,0,0,1-2-2V57Z"/><polygon fill="#acabb1" points="33 57 33 61 29 61 29 57 29 44 33 44 33 57"/><polygon fill="#acabb1" points="55 57 55 61 51 61 51 57 51 44 55 44 55 57"/><path d="M59,8H57V4a2.006,2.006,0,0,0-2-2H52a2.006,2.006,0,0,0-2,2V8H14V4a2.006,2.006,0,0,0-2-2H9A2.006,2.006,0,0,0,7,4V8H5a3.009,3.009,0,0,0-3,3V59a3.009,3.009,0,0,0,3,3H59a3.009,3.009,0,0,0,3-3V11A3.009,3.009,0,0,0,59,8ZM52,4h3v7H52ZM9,4h3v7H9ZM28,60H25a1,1,0,0,1-1-1V58h4Zm0-4H24V43h2v1a1,1,0,0,0,1,1h1ZM24,41V35a1,1,0,0,1,1-1h3v3H27a1,1,0,0,0-1,1v3Zm8,19H30V45h2ZM28,43V39h2v2h2V39h2v4Zm2-6V34h2v3ZM50,60H34V58H50Zm0-4H34V45h1a1,1,0,0,0,1-1V43H48v1a1,1,0,0,0,1,1h1ZM47,29a1,1,0,0,1,1,1v2H36V30a1,1,0,0,1,1-1Zm-6-2V23h4v4Zm9,7v3H49a1,1,0,0,0-1,1v3H36V38a1,1,0,0,0-1-1H34V34Zm4,26H52V45h2ZM50,43V39h2v2h2V39h2v4Zm2-6V34h2v3Zm8,22a1,1,0,0,1-1,1H56V58h4Zm0-3H56V45h1a1,1,0,0,0,1-1V43h2Zm0-15H58V38a1,1,0,0,0-1-1H56V34h3a1,1,0,0,1,1,1Zm0-8.82A3,3,0,0,0,59,32H50V30a3.009,3.009,0,0,0-3-3V22a1,1,0,0,0-1-1H40a1,1,0,0,0-1,1v5H37a3,3,0,0,0-1,.18V22a1,1,0,0,0-1-1H29a1,1,0,0,0-1,1v6a1,1,0,0,0,1,1h5.18A3,3,0,0,0,34,30v2H25a2.986,2.986,0,0,0-2.22,1H18a1,1,0,0,0-1,1v6a1,1,0,0,0,1,1h4v4H18a1,1,0,0,0-1,1v6a1,1,0,0,0,1,1h4v6a3,3,0,0,0,.18,1H5a1,1,0,0,1-1-1V17H60ZM34,23v4H30V23ZM22,35v4H19V35Zm0,12v4H19V47ZM60,15H4V11a1,1,0,0,1,1-1H7v1a2.006,2.006,0,0,0,2,2h3a2.006,2.006,0,0,0,2-2V10H50v1a2.006,2.006,0,0,0,2,2h3a2.006,2.006,0,0,0,2-2V10h2a1,1,0,0,1,1,1Z"/><path d="M13 21H7a1 1 0 0 0-1 1v6a1 1 0 0 0 1 1h6a1 1 0 0 0 1-1V22A1 1 0 0 0 13 21zm-1 6H8V23h4zM18 29h6a1 1 0 0 0 1-1V22a1 1 0 0 0-1-1H18a1 1 0 0 0-1 1v6A1 1 0 0 0 18 29zm1-6h4v4H19zM51 29h6a1 1 0 0 0 1-1V22a1 1 0 0 0-1-1H51a1 1 0 0 0-1 1v6A1 1 0 0 0 51 29zm1-6h4v4H52zM13 45H7a1 1 0 0 0-1 1v6a1 1 0 0 0 1 1h6a1 1 0 0 0 1-1V46A1 1 0 0 0 13 45zm-1 6H8V47h4zM13 33H7a1 1 0 0 0-1 1v6a1 1 0 0 0 1 1h6a1 1 0 0 0 1-1V34A1 1 0 0 0 13 33zm-1 6H8V35h4z"/></svg>