<?xml version="1.0" encoding="iso-8859-1"?>
<!-- Generator: Adobe Illustrator 19.0.0, SVG Export Plug-In . SVG Version: 6.00 Build 0)  -->
<svg version="1.1" id="Layer_1" xmlns="http://www.w3.org/2000/svg" xmlns:xlink="http://www.w3.org/1999/xlink" x="0px" y="0px"
	 viewBox="0 0 460 460" style="enable-background:new 0 0 460 460;" xml:space="preserve">
<g id="XMLID_28_">
	<polygon id="XMLID_29_" style="fill:#FA6121;" points="230,430 35,400 35,0 230,0 240,230 	"/>
	<polygon id="XMLID_30_" style="fill:#BB4919;" points="425,400 230,430 230,0 425,0 	"/>
	<rect id="XMLID_31_" x="35" y="400" style="fill:#466289;" width="195" height="60"/>
	<rect id="XMLID_41_" x="65" y="30" style="fill:#FFFFFF;" width="90" height="115"/>
	<rect id="XMLID_40_" x="65" y="175" style="fill:#FFFFFF;" width="90" height="115"/>
	<rect id="XMLID_71_" x="230" y="400" style="fill:#354A67;" width="195" height="60"/>
	<polygon id="XMLID_85_" style="fill:#FFFFFF;" points="185,30 185,145 230,145 240,87.5 230,30 	"/>
	<rect id="XMLID_86_" x="230" y="30" style="fill:#FFD488;" width="45" height="115"/>
	<polygon id="XMLID_87_" style="fill:#FFFFFF;" points="185,175 185,290 230,290 240,232.5 230,175 	"/>
	<rect id="XMLID_88_" x="230" y="175" style="fill:#FFD488;" width="45" height="115"/>
	<rect id="XMLID_34_" x="305" y="30" style="fill:#FFD488;" width="90" height="115"/>
	<rect id="XMLID_33_" x="305" y="175" style="fill:#FFD488;" width="90" height="115"/>
	<polygon id="XMLID_89_" style="fill:#233145;" points="185,320 185,460 230,460 240,390 230,320 	"/>
	<rect id="XMLID_90_" x="230" y="320" style="fill:#121923;" width="45" height="140"/>
</g>
<g>
</g>
<g>
</g>
<g>
</g>
<g>
</g>
<g>
</g>
<g>
</g>
<g>
</g>
<g>
</g>
<g>
</g>
<g>
</g>
<g>
</g>
<g>
</g>
<g>
</g>
<g>
</g>
<g>
</g>
</svg>
