<svg xmlns="http://www.w3.org/2000/svg" fill-rule="evenodd" stroke-linejoin="round" stroke-miterlimit="2" clip-rule="evenodd" viewBox="0 0 64 64"><g transform="matrix(.13 0 0 .13 -16.457 -36.343)"><path fill="#ffc800" d="M218.326,635.825L186.307,635.825C182.311,635.825 178.477,634.237 175.651,631.411C172.825,628.585 171.236,624.751 171.236,620.753L171.236,475.96C171.236,471.962 172.825,468.128 175.651,465.302C178.477,462.476 182.311,460.888 186.307,460.888L445.284,460.888C449.282,460.888 453.114,462.476 455.942,465.302C458.768,468.128 460.355,471.962 460.355,475.96L460.355,620.753C460.355,624.751 458.768,628.585 455.942,631.411C453.114,634.237 449.282,635.825 445.284,635.825L284.62,635.825C262.748,689.006 191.401,693.963 191.401,693.963C211.214,675.016 217.228,652.997 218.326,635.825Z"/><path d="M445.412,455.263C454.012,455.344 462.265,461.227 464.972,469.579C465.626,471.593 465.961,473.711 465.979,475.832C466.132,524.14 465.979,572.452 465.979,620.762C465.959,627.444 462.541,633.971 457.081,637.76C453.65,640.138 449.518,641.439 445.291,641.45L288.293,641.45C288.223,641.597 288.155,641.747 288.085,641.894C281.079,656.642 269.363,669.166 255.406,678.226C237.683,689.731 216.779,696.447 196.229,699.1C194.78,699.287 193.329,699.457 191.876,699.568C191.876,699.568 191.162,699.604 190.669,699.541C186.926,699.05 184.412,694.201 186.766,690.775C187.574,689.602 188.734,688.727 189.742,687.692C201.839,675.275 209.734,659.027 212.092,641.723L212.128,641.45L186.3,641.45C177.784,641.426 169.636,635.74 166.781,627.613C166.023,625.453 165.632,623.174 165.611,620.881C165.458,572.573 165.611,524.261 165.611,475.951C165.638,467.453 171.322,459.286 179.449,456.431C181.607,455.674 183.886,455.285 186.179,455.263C272.59,455.02 359.001,455.02 445.412,455.263ZM186.316,466.513C181.429,466.526 176.909,470.709 176.861,475.9C176.708,524.203 176.708,572.51 176.861,620.813C176.906,625.721 181.165,630.185 186.316,630.2L218.326,630.2C219.334,630.304 219.616,630.254 220.561,630.664C222.304,631.418 223.627,633.128 223.895,635.042C224.069,636.278 223.852,637.522 223.74,638.773C222.217,655.765 216.155,672.259 206.01,685.926L205.942,686.018C218.878,683.251 231.421,678.998 243.268,672.404C258.385,663.991 271.654,651.398 278.748,635.26C278.977,634.736 279.202,634.208 279.419,633.679L279.938,632.705C280.406,632.135 280.881,631.559 281.491,631.15C282.406,630.538 283.505,630.311 284.62,630.2C338.195,630.2 391.768,630.351 445.343,630.2C450.227,630.155 454.684,625.948 454.73,620.813C454.883,572.51 454.883,524.203 454.73,475.9C454.693,471.87 451.829,468.049 447.977,466.904C447.1,466.645 446.188,466.513 445.275,466.513L186.316,466.513Z"/><path fill="#fff" d="M239.85,534.215C247.655,534.215 253.991,540.551 253.991,548.356C253.991,556.162 247.655,562.498 239.85,562.498C232.045,562.498 225.707,556.162 225.707,548.356C225.707,540.551 232.045,534.215 239.85,534.215Z"/><path d="M239.976,528.59C247.232,528.656 254.241,533 257.502,539.462C260.219,544.84 260.284,551.491 257.663,556.927C253.948,564.631 244.901,569.455 236.115,567.769C228.593,566.327 222.178,560.108 220.536,552.575C218.644,543.899 223.24,534.173 231.712,530.339C234.299,529.169 237.159,528.581 239.976,528.59ZM239.794,539.84C235.998,539.876 232.411,542.707 231.55,546.43C230.303,551.83 235.35,557.933 241.517,556.711C244.942,556.031 247.795,553.032 248.283,549.553C248.945,544.828 245.025,539.888 239.906,539.84L239.794,539.84Z"/><path fill="#fff" d="M315.796,534.215C323.6,534.215 329.938,540.551 329.938,548.356C329.938,556.162 323.6,562.498 315.796,562.498C307.991,562.498 301.655,556.162 301.655,548.356C301.655,540.551 307.991,534.215 315.796,534.215Z"/><path d="M315.923,528.59C323.177,528.656 330.187,533 333.45,539.462C336.166,544.84 336.229,551.491 333.608,556.927C329.895,564.631 320.848,569.455 312.061,567.769C304.499,566.32 298.06,560.039 296.456,552.454C294.624,543.787 299.246,534.146 307.66,530.339C310.246,529.169 313.106,528.581 315.923,528.59ZM315.74,539.84C311.944,539.876 308.358,542.707 307.498,546.43C306.25,551.83 311.297,557.933 317.464,556.711C320.888,556.031 323.743,553.034 324.23,549.553C324.893,544.828 320.972,539.888 315.851,539.84L315.74,539.84Z"/><path fill="#fff" d="M391.741,534.215C399.548,534.215 405.884,540.551 405.884,548.356C405.884,556.162 399.548,562.498 391.741,562.498C383.936,562.498 377.6,556.162 377.6,548.356C377.6,540.551 383.936,534.215 391.741,534.215Z"/><path d="M391.869 528.59C397.091 528.638 402.235 530.813 405.884 534.55 410.411 539.185 412.421 546.124 411.082 552.454 409.232 561.202 400.918 568.123 391.741 568.123 387.088 568.123 382.442 566.413 378.895 563.377 374.036 559.217 371.401 552.593 372.091 546.217 372.823 539.437 377.329 533.18 383.605 530.339 386.192 529.169 389.05 528.581 391.869 528.59zM391.685 539.84C387.58 539.878 383.753 543.245 383.281 547.373 382.702 552.436 387.382 557.606 392.99 556.783 396.578 556.258 399.641 553.198 400.169 549.605 400.856 544.905 397.042 539.957 391.909 539.842 391.835 539.84 391.759 539.84 391.685 539.84zM558.052 352.082C567.139 352.166 575.71 358.234 578.698 366.89 579.479 369.148 579.875 371.529 579.899 373.928 580.048 421.468 579.899 469.01 579.899 516.551 579.877 523.633 576.238 530.593 570.427 534.622 566.782 537.149 562.387 538.517 557.919 538.531L533.513 538.531C536.337 556.659 543.859 574.776 557.872 586.462L558.684 587.297C559.235 588.164 559.453 588.361 559.714 589.372 560.389 591.971 558.884 595.019 556.315 596.021 555.25 596.437 555.007 596.455 553.689 596.385 542.999 595.786 532.433 593.464 522.227 590.242 505.876 585.079 490.496 577.003 477.79 565.33L477.013 564.449C476.82 564.107 476.59 563.785 476.435 563.425 475.342 560.902 476.417 557.653 478.834 556.288 480.553 555.32 482.762 555.343 484.457 556.346 485.068 556.706 485.575 557.21 486.077 557.662 500.042 570.229 517.945 578.245 536.364 582.421 537.322 582.638 538.283 582.842 539.244 583.04L539.363 583.063C529.492 569.675 523.768 552.989 521.878 536.422 521.761 535.406 521.663 534.386 521.594 533.365L521.586 533.216 521.64 532.076C521.888 531.099 521.88 530.813 522.421 529.943 523.226 528.644 524.569 527.704 526.068 527.396 526.441 527.319 526.824 527.319 527.204 527.281 537.462 527.281 547.722 527.312 557.98 527.279 563.524 527.227 568.595 522.432 568.649 516.613 568.798 469.075 568.798 421.537 568.649 373.999 568.598 368.483 563.884 363.386 557.98 363.332 472.471 363.064 386.959 363.064 301.45 363.332 296.023 363.382 291.006 367.936 290.788 373.651 290.783 373.793 290.779 373.936 290.779 374.078L290.779 438.253C290.74 438.642 290.74 439.038 290.657 439.421 290.083 442.125 287.318 444.136 284.567 443.846 282.208 443.599 280.145 441.736 279.653 439.421 279.571 439.038 279.571 438.642 279.531 438.253L279.531 374.06C279.554 366.824 283.334 359.764 289.33 355.765 292.869 353.407 297.104 352.12 301.378 352.082 386.935 351.814 472.495 351.814 558.052 352.082z"/></g></svg>