<?xml version="1.0" encoding="iso-8859-1"?>
<!-- Generator: Adobe Illustrator 19.0.0, SVG Export Plug-In . SVG Version: 6.00 Build 0)  -->
<svg version="1.1" id="Layer_1" xmlns="http://www.w3.org/2000/svg" xmlns:xlink="http://www.w3.org/1999/xlink" x="0px" y="0px"
	 viewBox="0 0 512.003 512.003" style="enable-background:new 0 0 512.003 512.003;" xml:space="preserve">
<g>
	<polygon style="fill:#323F5B;" points="0.001,317.796 512.001,317.796 512.001,0.003 0.001,0.003 	"/>
	<path style="fill:#E64C3C;" d="M114.76,476.692H26.484v-70.621c0-9.754,7.901-17.655,17.655-17.655h52.966
		c9.754,0,17.655,7.901,17.655,17.655V476.692z"/>
	<path style="fill:#C03A2B;" d="M97.105,388.416H44.139v-8.828c0-14.627,11.855-26.483,26.483-26.483s26.483,11.855,26.483,26.483
		V388.416z"/>
	<path style="fill:#E64C3C;" d="M238.346,476.692H150.07v-70.621c0-9.754,7.901-17.655,17.655-17.655h52.966
		c9.754,0,17.655,7.901,17.655,17.655V476.692z"/>
	<path style="fill:#C03A2B;" d="M220.691,388.416h-52.966v-8.828c0-14.627,11.855-26.483,26.483-26.483s26.483,11.855,26.483,26.483
		V388.416z"/>
	<path style="fill:#E64C3C;" d="M361.932,476.692h-88.276v-70.621c0-9.754,7.901-17.655,17.655-17.655h52.966
		c9.754,0,17.655,7.901,17.655,17.655V476.692z"/>
	<path style="fill:#C03A2B;" d="M344.277,388.416h-52.966v-8.828c0-14.627,11.855-26.483,26.483-26.483s26.483,11.855,26.483,26.483
		V388.416z"/>
	<path style="fill:#E64C3C;" d="M485.519,476.692h-88.276v-70.621c0-9.754,7.901-17.655,17.655-17.655h52.966
		c9.754,0,17.655,7.901,17.655,17.655V476.692z"/>
	<path style="fill:#C03A2B;" d="M467.863,388.416h-52.966v-8.828c0-14.627,11.855-26.483,26.483-26.483
		c14.627,0,26.483,11.855,26.483,26.483V388.416z"/>
	<path style="fill:#26B99A;" d="M326.871,159.148c0-39.142-31.726-70.868-70.868-70.868s-70.868,31.726-70.868,70.868
		s31.726,70.868,70.868,70.868S326.871,198.29,326.871,159.148"/>
	<polygon style="fill:#FFFFFF;" points="238.346,185.382 238.346,132.416 291.312,158.899 	"/>
	<polygon style="fill:#323F5B;" points="0.001,512.003 512.001,512.003 512.001,476.692 0.001,476.692 	"/>
	<g>
		<path style="fill:#E64C3C;" d="M70.622,5.482c0,106.505-25.106,179.897-70.621,179.897V0h70.621V5.482z"/>
		<path style="fill:#E64C3C;" d="M52.967,317.796c0,0,1.651-132.414-52.966-132.414v132.414H52.967z"/>
		<path style="fill:#E64C3C;" d="M441.381,5.482c0,106.505,25.106,179.897,70.621,179.897V0h-70.621V5.482z"/>
		<path style="fill:#E64C3C;" d="M459.036,317.796c0,0-1.651-132.414,52.966-132.414v132.414H459.036z"/>
	</g>
</g>
<g>
</g>
<g>
</g>
<g>
</g>
<g>
</g>
<g>
</g>
<g>
</g>
<g>
</g>
<g>
</g>
<g>
</g>
<g>
</g>
<g>
</g>
<g>
</g>
<g>
</g>
<g>
</g>
<g>
</g>
</svg>
