<?xml version="1.0" encoding="iso-8859-1"?>
<!-- Generator: Adobe Illustrator 19.0.0, SVG Export Plug-In . SVG Version: 6.00 Build 0)  -->
<svg version="1.1" id="Layer_1" xmlns="http://www.w3.org/2000/svg" xmlns:xlink="http://www.w3.org/1999/xlink" x="0px" y="0px"
	 viewBox="0 0 512 512" style="enable-background:new 0 0 512 512;" xml:space="preserve">
<path d="M0,304.112V28.56c0-4.896,4.184-8.888,9.288-8.888h436.536c5.104,0,9.288,4,9.288,8.888v275.552H0z"/>
<g>
	<path style="fill:#999999;" d="M455.112,304.112v37.92c0,5.216-4.184,9.488-9.288,9.488H9.288C4.184,351.528,0,347.256,0,342.048
		v-37.92L455.112,304.112L455.112,304.112z"/>
	<polygon style="fill:#999999;" points="161.184,417.896 293.92,417.896 284.448,351.528 170.664,351.528 	"/>
</g>
<g>
	<polygon style="fill:#636363;" points="284.448,351.528 170.664,351.528 164.76,392.888 286.656,366.992 	"/>
	<rect x="128" y="417.92" style="fill:#636363;" width="199.112" height="9.48"/>
</g>
<rect x="55.512" y="59.144" style="fill:#999999;" width="156.104" height="88.8"/>
<rect x="55.512" y="175.848" style="fill:#E50914;" width="156.104" height="88.8"/>
<rect x="243.496" y="59.144" style="fill:#999999;" width="156.104" height="88.8"/>
<rect x="243.496" y="175.848" style="fill:#E50914;" width="156.104" height="88.8"/>
<path d="M503.216,492.328H356.8c-4.832,0-8.784-3.952-8.784-8.784V208.28c0-4.832,3.952-8.784,8.784-8.784h146.416
	c4.832,0,8.784,3.952,8.784,8.784v275.264C512,488.376,508.048,492.328,503.216,492.328z"/>
<rect x="356.8" y="222.928" width="146.416" height="234.24"/>
<g>
	<path style="fill:#999999;" d="M447.424,214.136h-35.136c-1.608,0-2.928-1.32-2.928-2.928l0,0c0-1.608,1.32-2.928,2.928-2.928
		h35.136c1.608,0,2.928,1.32,2.928,2.928l0,0C450.352,212.824,449.032,214.136,447.424,214.136z"/>
	<path style="fill:#999999;" d="M447.576,474.76H412.44c-1.608,0-2.928-1.32-2.928-2.928l0,0c0-1.608,1.32-2.928,2.928-2.928h35.136
		c1.608,0,2.928,1.32,2.928,2.928l0,0C450.504,473.44,449.184,474.76,447.576,474.76z"/>
	<rect x="374.376" y="243.848" style="fill:#999999;" width="50.344" height="46.76"/>
	<rect x="435.28" y="243.848" style="fill:#999999;" width="50.344" height="46.76"/>
</g>
<g>
	<rect x="374.376" y="302.184" style="fill:#E50914;" width="50.344" height="46.76"/>
	<rect x="435.28" y="302.184" style="fill:#E50914;" width="50.344" height="46.76"/>
</g>
<g>
	<rect x="374.376" y="431.528" style="fill:#FFFFFF;" width="111.272" height="4.744"/>
	<rect x="374.376" y="412.92" style="fill:#FFFFFF;" width="111.272" height="4.744"/>
	<rect x="374.376" y="394.32" style="fill:#FFFFFF;" width="111.272" height="4.744"/>
	<rect x="374.376" y="375.712" style="fill:#FFFFFF;" width="111.272" height="4.744"/>
</g>
<g>
</g>
<g>
</g>
<g>
</g>
<g>
</g>
<g>
</g>
<g>
</g>
<g>
</g>
<g>
</g>
<g>
</g>
<g>
</g>
<g>
</g>
<g>
</g>
<g>
</g>
<g>
</g>
<g>
</g>
</svg>
