<?xml version="1.0" encoding="iso-8859-1"?>
<!-- Generator: Adobe Illustrator 19.0.0, SVG Export Plug-In . SVG Version: 6.00 Build 0)  -->
<svg version="1.1" id="Layer_1" xmlns="http://www.w3.org/2000/svg" xmlns:xlink="http://www.w3.org/1999/xlink" x="0px" y="0px"
	 viewBox="0 0 480 480" style="enable-background:new 0 0 480 480;" xml:space="preserve">
<rect x="40" y="360" style="fill:#FFFFFF;" width="400" height="112"/>
<path style="fill:#F5B945;" d="M456,360H24c-8.84,0-16-7.16-16-16v-8c0-8.84,7.16-16,16-16h432c8.84,0,16,7.16,16,16v8
	C472,352.84,464.84,360,456,360z"/>
<path d="M456,312H24c-13.232,0-24,10.768-24,24v8c0,13.232,10.768,24,24,24h8v104c0,4.424,3.584,8,8,8h400c4.424,0,8-3.576,8-8V368
	h8c13.232,0,24-10.768,24-24v-8C480,322.768,469.232,312,456,312z M432,464H48v-96h384V464z M464,344c0,4.416-3.584,8-8,8h-16H40H24
	c-4.408,0-8-3.584-8-8v-8c0-4.416,3.592-8,8-8h432c4.416,0,8,3.584,8,8V344z"/>
<circle style="fill:#F5B945;" cx="375.864" cy="78.368" r="68.184"/>
<path d="M375.856,154.552c-42.008,0-76.176-34.176-76.176-76.184s34.168-76.176,76.176-76.176s76.176,34.168,76.176,76.176
	S417.864,154.552,375.856,154.552z M375.856,18.184c-33.176,0-60.176,27-60.176,60.176c0,33.184,27,60.184,60.176,60.184
	s60.176-27,60.176-60.184C436.04,45.184,409.04,18.184,375.856,18.184z"/>
<path d="M376,120c-4.424,0-8-3.576-8-8V72c0-4.424,3.576-8,8-8s8,3.576,8,8v40C384,116.424,380.424,120,376,120z"/>
<circle cx="375.832" cy="48.16" r="8.168"/>
<path style="fill:#E88F97;" d="M214.552,102.872L200,81.912V72H88v104h112v-48h1.408C214.328,128,221.92,113.488,214.552,102.872z"
	/>
<path style="fill:#D94452;" d="M240,320H48V211.048C48,193.368,64.048,176,81.72,176h108.568C216.8,176,240,200.536,240,227.048V320
	z"/>
<path d="M208,171.128V135.08c6.24-1.776,11.576-6.032,14.68-11.96c4.152-7.944,3.56-17.456-1.552-24.816L208,79.408V72
	c0-4.424-3.584-8-8-8H88c-4.416,0-8,3.576-8,8v96.096c-21.144,1.04-40,21.008-40,42.944V320c0,4.424,3.584,8,8,8h192
	c4.416,0,8-3.576,8-8v-92.952C248,201.856,230.688,179.176,208,171.128z M232,312H104v-72c0-4.424-3.584-8-8-8s-8,3.576-8,8v72H56
	V211.048C56,197.4,68.736,184,81.72,184H88h102.296C212.12,184,232,204.512,232,227.048V312z M96,80h96v1.912
	c0,1.632,0.496,3.224,1.432,4.56l14.552,20.96c1.728,2.496,1.92,5.584,0.512,8.264c-1.4,2.704-4.048,4.304-7.088,4.304H200
	c-4.416,0-8,3.576-8,8v40h-1.704H96V80z"/>
<circle cx="199.832" cy="256.16" r="8.168"/>
<circle cx="199.832" cy="224.16" r="8.168"/>
<circle cx="199.832" cy="288.16" r="8.168"/>
<circle cx="151.832" cy="256.16" r="8.168"/>
<circle cx="151.832" cy="224.16" r="8.168"/>
<circle cx="151.832" cy="288.16" r="8.168"/>
<g>
	<path style="fill:#3AADD9;" d="M192,72H88V40c0-17.672,14.328-32,32-32h104v32C224,57.672,209.672,72,192,72z"/>
	<path style="fill:#3AADD9;" d="M96,144h-8c-8.84,0-16-7.16-16-16V88c0-8.84,7.16-16,16-16h24v56C112,136.84,104.84,144,96,144z"/>
</g>
<path d="M224,0H120C97.944,0,80,17.944,80,40v25.472C70.712,68.784,64,77.584,64,88v40c0,13.232,10.768,24,24,24h8
	c13.232,0,24-10.768,24-24V80h72c22.056,0,40-17.944,40-40V8C232,3.576,228.416,0,224,0z M104,128c0,4.416-3.592,8-8,8h-8
	c-4.408,0-8-3.584-8-8V88c0-4.416,3.592-8,8-8h16V128z M216,40c0,13.232-10.768,24-24,24h-80H96V40c0-13.232,10.768-24,24-24h96V40z
	"/>
<path style="fill:#3AADD9;" d="M432,280H304v-8.336C304,253.992,318.328,240,336,240h64c17.672,0,32,13.992,32,31.664V280z"/>
<polygon points="392,288 392,271.76 344,271.904 344,288 "/>
<path style="fill:#FFFFFF;" d="M400,320h-64v-36.736c0-8.84,7.16-19.264,16-19.264h32c8.84,0,16,10.424,16,19.264V320z"/>
<path d="M400,232h-64c-22.056,0-40,17.8-40,39.664V280c0,4.424,3.576,8,8,8h24v32c0,4.424,3.576,8,8,8h64c4.424,0,8-3.576,8-8v-32
	h24c4.424,0,8-3.576,8-8v-8.336C440,249.8,422.056,232,400,232z M392,312h-48v-28.744c0-5.152,4.336-11.256,8-11.256h32
	c3.664,0,8,6.104,8,11.256V312z M405.408,271.928C401.56,263.192,393.688,256,384,256h-32c-9.712,0-17.608,7.232-21.448,16H312
	v-0.336C312,258.392,322.536,248,336,248h64c13.464,0,24,10.392,24,23.664L405.408,271.928z"/>
<path d="M120,400H72c-4.416,0-8-3.576-8-8s3.584-8,8-8h48c4.416,0,8,3.576,8,8S124.416,400,120,400z"/>
<path d="M160,400h-8c-4.416,0-8-3.576-8-8s3.584-8,8-8h8c4.416,0,8,3.576,8,8S164.416,400,160,400z"/>
<path d="M232,448h-48c-4.416,0-8-3.576-8-8s3.584-8,8-8h48c4.416,0,8,3.576,8,8S236.416,448,232,448z"/>
<path d="M272,448h-8c-4.424,0-8-3.576-8-8s3.576-8,8-8h8c4.424,0,8,3.576,8,8S276.424,448,272,448z"/>
<path d="M360,424h-48c-4.424,0-8-3.576-8-8s3.576-8,8-8h48c4.424,0,8,3.576,8,8S364.424,424,360,424z"/>
<path d="M400,424h-8c-4.424,0-8-3.576-8-8s3.576-8,8-8h8c4.424,0,8,3.576,8,8S404.424,424,400,424z"/>
<g>
</g>
<g>
</g>
<g>
</g>
<g>
</g>
<g>
</g>
<g>
</g>
<g>
</g>
<g>
</g>
<g>
</g>
<g>
</g>
<g>
</g>
<g>
</g>
<g>
</g>
<g>
</g>
<g>
</g>
</svg>
