<?xml version="1.0" encoding="iso-8859-1"?>
<!-- Generator: Adobe Illustrator 19.0.0, SVG Export Plug-In . SVG Version: 6.00 Build 0)  -->
<svg version="1.1" id="Layer_1" xmlns="http://www.w3.org/2000/svg" xmlns:xlink="http://www.w3.org/1999/xlink" x="0px" y="0px"
	 viewBox="0 0 512 512" style="enable-background:new 0 0 512 512;" xml:space="preserve">
<path id="SVGCleanerId_0" style="fill:#FAFAFA;" d="M503.983,166.224c0-85.008-88.055-153.921-196.676-153.921
	S110.63,81.216,110.63,166.224s88.055,153.921,196.676,153.921c15.622,0,30.816-1.432,45.386-4.127l117.086,81.087L427.023,288.34
	C473.815,260.203,503.983,215.974,503.983,166.224z"/>
<g>
	<path id="SVGCleanerId_0_1_" style="fill:#FAFAFA;" d="M503.983,166.224c0-85.008-88.055-153.921-196.676-153.921
		S110.63,81.216,110.63,166.224s88.055,153.921,196.676,153.921c15.622,0,30.816-1.432,45.386-4.127l117.086,81.087L427.023,288.34
		C473.815,260.203,503.983,215.974,503.983,166.224z"/>
</g>
<path style="fill:#E5E5E5;" d="M384.267,292.353c-108.621,0-196.676-68.913-196.676-153.921c0-50.042,30.522-94.499,77.783-122.612
	C176.902,30.859,110.63,92.48,110.63,166.224c0,85.008,88.055,153.921,196.676,153.921c15.622,0,30.816-1.432,45.386-4.127
	l117.086,81.087L427.148,288.66C413.342,291.064,398.999,292.353,384.267,292.353z"/>
<polygon style="fill:#FF8C78;" points="307.307,110.641 238.898,144.846 238.898,256.011 290.205,256.011 290.205,196.153 
	324.409,196.153 324.409,256.011 375.716,256.011 375.716,144.846 "/>
<polygon style="fill:#DF7A6E;" points="238.898,144.846 238.898,256.011 265.62,256.011 265.62,131.485 "/>
<path style="fill:#FAFAFA;" d="M232.484,208.979H40.084c-17.71,0-32.067,14.356-32.067,32.067v158.196
	c0,17.711,14.356,32.067,32.067,32.067h44.894l-25.653,68.409l102.614-68.409h70.547c17.71,0,32.067-14.356,32.067-32.067V241.046
	C264.551,223.336,250.195,208.979,232.484,208.979z"/>
<path style="fill:#E5E5E5;" d="M50.772,399.242V241.046c0-17.71,14.356-32.067,32.067-32.067H40.084
	c-17.71,0-32.067,14.356-32.067,32.067v158.196c0,17.711,14.356,32.067,32.067,32.067h42.756
	C65.129,431.309,50.772,416.953,50.772,399.242z"/>
<g>
	<path style="fill:#6DDAE1;" d="M137.353,397.105h-2.138c-8.855,0-16.033-7.179-16.033-16.033v-61.996
		c0-8.855,7.179-16.033,16.033-16.033h2.138c8.855,0,16.033,7.179,16.033,16.033v61.996
		C153.386,389.926,146.208,397.105,137.353,397.105z"/>
	<circle style="fill:#6DDAE1;" cx="136.284" cy="260.287" r="17.102"/>
</g>
<path d="M489.791,239.728C504.527,216.843,512,192.113,512,166.224c0-32.548-12.118-63.919-35.045-90.722
	c-2.877-3.364-7.94-3.759-11.302-0.881c-3.364,2.877-3.759,7.939-0.881,11.302c20.408,23.859,31.196,51.628,31.196,80.301
	c0,45.316-26.635,87.321-73.075,115.246c-3.354,2.017-4.761,6.161-3.33,9.804l33.113,84.235l-95.418-66.081
	c-1.756-1.216-3.926-1.681-6.022-1.292c-25.618,4.738-52.814,5.234-78.668,1.514v-45.62h17.637c4.428,0,8.017-3.588,8.017-8.017
	V204.17h18.171v51.841c0,4.428,3.588,8.017,8.017,8.017h51.307c4.428,0,8.017-3.588,8.017-8.017V144.847
	c0-3.037-1.716-5.813-4.432-7.17l-68.409-34.205c-2.256-1.13-4.915-1.13-7.171,0l-68.409,34.205
	c-2.716,1.359-4.432,4.133-4.432,7.17v56.117H124.05c-3.583-11.316-5.404-22.977-5.404-34.739
	c0-80.452,84.633-145.904,188.66-145.904c49.613,0,96.483,14.816,131.975,41.718c3.528,2.677,8.558,1.982,11.231-1.546
	c2.675-3.528,1.982-8.556-1.546-11.231C410.704,20.258,360.396,4.286,307.307,4.286c-54.317,0-105.461,16.616-144.012,46.787
	c-39.131,30.624-60.681,71.519-60.681,115.151c0,11.739,1.585,23.38,4.715,34.739H40.084C17.981,200.963,0,218.944,0,241.046v96.2
	c0,4.428,3.589,8.017,8.017,8.017s8.017-3.588,8.017-8.017v-96.2c0-13.261,10.788-24.05,24.05-24.05h192.401
	c13.262,0,24.05,10.789,24.05,24.05v158.196c0,13.261-10.788,24.05-24.05,24.05h-70.547c-1.582,0-3.13,0.468-4.447,1.347
	l-81.934,54.622l16.926-45.137c1.933-5.154-2.006-10.832-7.506-10.832H40.084c-13.262,0-24.05-10.789-24.05-24.05v-19.24
	c0-4.428-3.589-8.017-8.017-8.017S0,375.573,0,380.001v19.24c0,22.103,17.981,40.083,40.084,40.083h33.326l-21.592,57.577
	c-1.111,2.961-0.339,6.38,1.935,8.577c2.681,2.59,6.916,2.978,10.019,0.909l100.595-67.062h68.118
	c22.103,0,40.084-17.981,40.084-40.083v-73.415c25.775,3.469,52.693,3.037,78.276-1.337l114.369,79.206
	c3.061,2.119,7.299,1.813,10.025-0.72c2.387-2.219,3.193-5.769,2.001-8.803L436.921,291.61
	C458.8,277.431,476.993,259.599,489.791,239.728z M246.914,203.66v-53.859l60.393-30.196l60.392,30.196v98.193h-35.273v-51.841
	c0-4.428-3.588-8.017-8.017-8.017h-34.205c-4.428,0-8.017,3.588-8.017,8.017v51.841h-9.62v-6.948
	C272.568,224.03,261.906,209.467,246.914,203.66z"/>
<path d="M311.146,69.399c-2.394-1.305-5.284-1.305-7.679,0l-94.063,51.307c-3.887,2.12-5.32,6.989-3.199,10.877
	c2.12,3.885,6.991,5.32,10.876,3.198l90.225-49.213l90.223,49.213c1.22,0.665,2.534,0.981,3.832,0.98
	c2.839,0,5.589-1.511,7.045-4.178c2.12-3.888,0.688-8.756-3.198-10.877L311.146,69.399z"/>
<path d="M111.165,381.071c0,13.261,10.788,24.05,24.05,24.05h2.138c13.262,0,24.05-10.789,24.05-24.05v-61.996
	c0-13.261-10.788-24.05-24.05-24.05h-2.138c-13.262,0-24.05,10.789-24.05,24.05V381.071z M127.198,319.075
	c0-4.421,3.596-8.017,8.017-8.017h2.138c4.421,0,8.017,3.596,8.017,8.017v61.996c0,4.421-3.596,8.017-8.017,8.017h-2.138
	c-4.421,0-8.017-3.596-8.017-8.017V319.075z"/>
<path d="M136.284,285.405c13.851,0,25.119-11.268,25.119-25.119c0-13.851-11.268-25.119-25.119-25.119s-25.119,11.268-25.119,25.119
	C111.165,274.137,122.433,285.405,136.284,285.405z M136.284,251.201c5.01,0,9.086,4.076,9.086,9.086
	c0,5.01-4.076,9.086-9.086,9.086s-9.086-4.076-9.086-9.086C127.198,255.276,131.274,251.201,136.284,251.201z"/>
<g>
</g>
<g>
</g>
<g>
</g>
<g>
</g>
<g>
</g>
<g>
</g>
<g>
</g>
<g>
</g>
<g>
</g>
<g>
</g>
<g>
</g>
<g>
</g>
<g>
</g>
<g>
</g>
<g>
</g>
</svg>
