<?xml version="1.0" encoding="iso-8859-1"?>
<!-- Generator: Adobe Illustrator 19.0.0, SVG Export Plug-In . SVG Version: 6.00 Build 0)  -->
<svg version="1.1" id="Capa_1" xmlns="http://www.w3.org/2000/svg" xmlns:xlink="http://www.w3.org/1999/xlink" x="0px" y="0px"
	 viewBox="0 0 512.001 512.001" style="enable-background:new 0 0 512.001 512.001;" xml:space="preserve">
<g>
	<path style="fill:#F0A479;" d="M94.571,290.448c-0.638,15.454,1.874,31.718,2.57,46.052c0.689,14.223,12.466,25.093,26.292,25.093
		c1.184,0,2.38-0.079,3.587-0.243c13.392-1.816,23.241-13.465,22.809-26.973l-1.458-45.437l48.475-25.577v98.171
		c0,9.764,35.169,14.648,70.332,14.648c35.171,0,70.335-4.882,70.335-14.65v-98.17l31.733,16.743l14.642,7.725l2.101,1.108
		l-0.786,24.5l-0.672,20.936c-0.434,13.508,9.416,25.155,22.809,26.973c1.206,0.164,2.405,0.243,3.587,0.243
		c13.827,0,25.6-10.865,26.292-25.089c1.805-37.08,8.898-70.602-23.838-96.439c-18.085-14.274-35.745-30.481-54.592-43.592
		c-12.004-8.35-26.172-11.763-40.502-13.374c-16.055-1.805-28.121,3.62-43.768,3.62h-9.437h-9.438
		c-11.672,0-21.746-4.711-33.347-4.507c-27.646,0.485-44.875,13.481-66.325,28.568c-19.203,13.507-40.034,27.538-52.78,47.778
		C97.245,268.004,95.043,279.005,94.571,290.448z"/>
	<path style="fill:#F0A479;" d="M279.754,158.319c16.313-2.399,28.835-16.448,28.835-33.426v-18.178
		c0-18.664-15.129-33.793-33.794-33.793h-18.178c-18.664,0-33.793,15.129-33.793,33.793v18.179
		c0,16.976,12.523,31.026,28.833,33.426c4.023,0,8.665-0.001,14.051-0.001C271.094,158.319,275.734,158.319,279.754,158.319z"/>
</g>
<g>
	<path style="fill:#E03905;" d="M426.683,167.467c-6.23,0-12.316-3.129-15.834-8.819c-13.021-21.062-7.334-43.05-2.762-60.717
		c2.638-10.197,5.366-20.74,2.582-25.436c-5.236-8.835-2.319-20.24,6.515-25.476c8.833-5.236,20.239-2.319,25.476,6.514
		c10.668,18,5.545,37.801,1.429,53.711c-3.91,15.112-5.969,24.797-1.609,31.848c5.4,8.734,2.696,20.193-6.038,25.594
		C433.398,166.57,430.018,167.467,426.683,167.467z"/>
	<path style="fill:#E03905;" d="M488.502,167.467c-6.23,0-12.317-3.13-15.834-8.819c-13.021-21.062-7.332-43.05-2.762-60.716
		c2.638-10.198,5.366-20.742,2.582-25.437c-5.236-8.835-2.319-20.24,6.515-25.476c8.833-5.236,20.24-2.319,25.476,6.514
		c10.668,18,5.546,37.801,1.429,53.712c-3.909,15.111-5.967,24.796-1.609,31.847c5.4,8.736,2.696,20.193-6.038,25.594
		C495.216,166.57,491.838,167.467,488.502,167.467z"/>
</g>
<path style="fill:#CCF7F5;" d="M63.658,195.022C28.557,195.022,0,166.465,0,131.363c0-10.238,2.485-20.359,7.205-29.409
	c0.291-0.688,0.626-1.362,1.005-2.018L47.415,32.03c3.322-5.753,9.461-9.297,16.104-9.297s12.782,3.544,16.104,9.297l36.777,63.705
	c7.143,10.555,10.914,22.855,10.914,35.629C127.313,166.465,98.757,195.022,63.658,195.022z"/>
<path style="fill:#74D6D0;" d="M461.84,339.648c-2.268,26.362-24.262,46.738-50.913,46.738c-2.302,0-4.63-0.159-6.921-0.469
	c-19.919-2.702-35.727-16.473-41.702-34.549v10.166c0,5.768-1.966,20.123-20.178,28.794c-5.743,2.735-12.966,4.884-22.079,6.572
	c-14.198,2.628-32.975,4.076-52.869,4.076c-19.891,0-38.665-1.448-52.864-4.077c-9.112-1.686-16.334-3.837-22.077-6.57
	c-18.215-8.67-20.181-23.025-20.181-28.795v-10.169c-5.974,18.078-21.781,31.849-41.703,34.552c-2.291,0.31-4.619,0.467-6.92,0.467
	c-27.073,0-49.338-21.025-51.005-47.993c-33.674,16.68-52.636,36.958-52.636,56.842c0,22.742,24.798,45.995,68.037,63.795
	c47.361,19.499,110.601,30.239,178.068,30.239c67.468,0,130.707-10.739,178.069-30.239c43.238-17.801,68.036-41.053,68.036-63.795
	C512,375.846,493.959,356.084,461.84,339.648z"/>
<path style="fill:#CCF7F5;" d="M269.615,400.964c-0.811,0.005-1.621,0.011-2.436,0.011c-19.891,0-38.665-1.448-52.864-4.077
	c-9.112-1.686-16.334-3.837-22.077-6.57c-18.215-8.67-20.181-23.025-20.181-28.795v-10.169
	c-5.974,18.078-21.781,31.849-41.703,34.552c-2.291,0.31-4.619,0.467-6.92,0.467c-27.073,0-49.338-21.025-51.005-47.993
	c-33.673,16.68-52.636,36.957-52.636,56.842c0,22.742,24.798,45.995,68.037,63.795c47.361,19.499,110.601,30.239,178.068,30.239
	c1.242,0,2.479-0.011,3.719-0.019v-88.285H269.615z"/>
<g>
	<path style="fill:#F5CDB3;" d="M269.615,186.721h-13.97c-11.672,0-21.746-4.711-33.347-4.507
		c-27.646,0.486-44.875,13.481-66.325,28.568c-19.203,13.507-40.034,27.538-52.78,47.778c-5.948,9.445-8.148,20.445-8.621,31.888
		c-0.638,15.454,1.874,31.718,2.57,46.052c0.689,14.223,12.466,25.093,26.292,25.093c1.184,0,2.38-0.079,3.587-0.243
		c13.392-1.816,23.241-13.465,22.809-26.973l-1.458-45.437l48.475-25.577v98.171c0,9.764,35.169,14.648,70.332,14.648
		c0.812,0,1.624-0.005,2.436-0.011V186.721H269.615z"/>
	<path style="fill:#F5CDB3;" d="M269.615,72.922h-12.996c-18.664,0-33.793,15.129-33.793,33.793v18.179
		c0,16.976,12.523,31.026,28.833,33.426c4.023,0,8.665,0,14.051,0c1.347,0,2.648,0,3.904,0V72.922H269.615z"/>
</g>
<g>
</g>
<g>
</g>
<g>
</g>
<g>
</g>
<g>
</g>
<g>
</g>
<g>
</g>
<g>
</g>
<g>
</g>
<g>
</g>
<g>
</g>
<g>
</g>
<g>
</g>
<g>
</g>
<g>
</g>
</svg>
