<?xml version="1.0" encoding="iso-8859-1"?>
<!-- Generator: Adobe Illustrator 18.1.1, SVG Export Plug-In . SVG Version: 6.00 Build 0)  -->
<svg version="1.1" id="Capa_1" xmlns="http://www.w3.org/2000/svg" xmlns:xlink="http://www.w3.org/1999/xlink" x="0px" y="0px"
	 viewBox="0 0 51.023 51.023" style="enable-background:new 0 0 51.023 51.023;" xml:space="preserve">
<g>
	<path style="fill:#010002;" d="M40.837,17.836c-0.591-1.937-1.553-3.466-3.467-3.466H13.568c-1.915,0-2.86,1.509-3.466,3.466
		c0,0-0.561,9.547-0.503,14.861c0.031,5.951,2.71,14.86,2.71,14.86c0.654,2.023,1.552,3.466,3.467,3.466H35.41
		c1.914,0,2.899-1.566,3.468-3.466c0,0,2.55-9.083,2.55-14.86C41.427,26.92,40.837,17.836,40.837,17.836z M19.844,42.696
		c0,1.104-0.896,2-2,2c-1.105,0-2-0.896-2-2v-20c0-1.104,0.895-2,2-2c1.104,0,2,0.896,2,2V42.696z M27.511,42.696
		c0,1.104-0.896,2-2,2c-1.105,0-2-0.896-2-2v-20c0-1.104,0.895-2,2-2c1.104,0,2,0.896,2,2V42.696z M35.178,42.696
		c0,1.104-0.896,2-2,2c-1.105,0-2-0.896-2-2v-20c0-1.104,0.895-2,2-2c1.104,0,2,0.896,2,2V42.696z"/>
	<path style="fill:#010002;" d="M38.486,6.886h-3.388c0-0.023,0.007-0.044,0.007-0.067L34.88,4.141C34.826,1.848,32.945,0,30.64,0
		H20.217c-2.305,0-4.187,1.848-4.24,4.141l-0.218,2.504l-0.008,0.174c0,0.023,0.007,0.044,0.007,0.067H12.37
		c-0.562,0-1.021,0.457-1.021,1.021v3.913c0,0.563,0.458,1.02,1.021,1.02h26.115c0.562,0,1.021-0.457,1.021-1.02V7.907
		C39.506,7.344,39.048,6.886,38.486,6.886z M19.755,6.862l0.213-2.447l0.008-0.174C19.976,4.108,20.084,4,20.217,4H30.64
		c0.133,0,0.241,0.108,0.241,0.241l0.22,2.621c-0.002,0.01-0.012,0.015-0.014,0.024H19.77C19.767,6.877,19.757,6.872,19.755,6.862z"
		/>
</g>
<g>
</g>
<g>
</g>
<g>
</g>
<g>
</g>
<g>
</g>
<g>
</g>
<g>
</g>
<g>
</g>
<g>
</g>
<g>
</g>
<g>
</g>
<g>
</g>
<g>
</g>
<g>
</g>
<g>
</g>
</svg>
