<?xml version="1.0" encoding="iso-8859-1"?>
<!-- Generator: Adobe Illustrator 19.0.0, SVG Export Plug-In . SVG Version: 6.00 Build 0)  -->
<svg version="1.1" id="Layer_1" xmlns="http://www.w3.org/2000/svg" xmlns:xlink="http://www.w3.org/1999/xlink" x="0px" y="0px"
	 viewBox="0 0 512.001 512.001" style="enable-background:new 0 0 512.001 512.001;" xml:space="preserve">
<path style="fill:#CAEEC5;" d="M257.161,512.001h-2.321C114.096,512.001,0,397.905,0,257.161l0,0
	C0,116.416,114.096,2.321,254.839,2.321h2.321C397.904,2.321,512,116.416,512,257.16l0,0
	C512,397.905,397.904,512.001,257.161,512.001z"/>
<path style="fill:#981700;" d="M40.675,225.092h226.581v286.908H40.675V225.092L40.675,225.092z"/>
<path style="fill:#5B7F81;" d="M256.125,225.092h215.451v286.908H256.125V225.092L256.125,225.092z"/>
<path style="fill:#7A1700;" d="M188.204,286.56c0,4.895-3.987,8.864-8.904,8.864h-61.798c-4.917,0-8.904-3.969-8.904-8.864
	s3.987-8.864,8.904-8.864h61.798C184.217,277.696,188.204,281.665,188.204,286.56z"/>
<path style="fill:#234848;" d="M312.554,335.828h102.587v120.71H312.554V335.828L312.554,335.828z"/>
<path style="fill:#415E5C;" d="M323.511,286.56c0,4.895-3.987,8.864-8.904,8.864h-2.052c-4.917,0-8.904-3.969-8.904-8.864
	s3.987-8.864,8.904-8.864h2.052C319.524,277.696,323.511,281.665,323.511,286.56z M363.848,277.696h-2.055
	c-4.917,0-8.904,3.969-8.904,8.864c0,4.895,3.987,8.864,8.904,8.864h2.055c4.917,0,8.904-3.969,8.904-8.864
	S368.766,277.696,363.848,277.696z M415.141,277.696h-2.055c-4.917,0-8.904,3.969-8.904,8.864c0,4.895,3.987,8.864,8.904,8.864
	h2.055c4.917,0,8.904-3.969,8.904-8.864S420.058,277.696,415.141,277.696z"/>
<path style="fill:#663310;" d="M265.235,11.184c0,4.895-3.987,8.864-8.904,8.864H40.466c-4.917,0-8.904-3.969-8.904-8.864
	s3.987-8.864,8.904-8.864H256.33C261.248,2.321,265.235,6.289,265.235,11.184z"/>
<path style="fill:#5B7F81;" d="M105.682,11.184v84.287c0,4.895-3.987,8.864-8.904,8.864c-4.917,0-8.904-3.969-8.904-8.864V11.184
	c0-4.895,3.987-8.864,8.904-8.864C101.695,2.32,105.682,6.289,105.682,11.184z"/>
<path style="fill:#CF8F3D;" d="M208.93,11.184v84.287c0,4.895-3.987,8.864-8.904,8.864c-4.917,0-8.904-3.969-8.904-8.864V11.184
	c0-4.895,3.987-8.864,8.904-8.864C204.943,2.32,208.93,6.289,208.93,11.184z"/>
<path style="fill:#C13421;" d="M363.848,225.092c-31.409,0-57.1-25.662-57.1-57.032v-16.69c0-1.096,0.036-2.186,0.092-3.266h114.016
	c0.057,1.08,0.098,2.169,0.098,3.266v16.69C420.953,199.43,395.257,225.092,363.848,225.092L363.848,225.092L363.848,225.092z"/>
<path style="fill:#FF4328;" d="M306.747,151.369c0-1.096,0.036-2.186,0.092-3.266h60.367c0.057,1.08,0.098,2.169,0.098,3.266v16.69
	c0,21.701-12.301,40.664-30.28,50.296c-17.978-9.632-30.277-28.595-30.277-50.296L306.747,151.369L306.747,151.369z"/>
<path style="fill:#FFBB5E;" d="M345.132,44.521c8.165,14.647,19.349,34.705,1.522,54.561c-1.759,1.959-4.196,2.957-6.643,2.957
	c-2.111,0-4.232-0.744-5.93-2.255c-3.666-3.262-3.982-8.865-0.706-12.516c8.542-9.514,5.569-17.315-3.814-34.145
	c-7.841-14.064-17.601-31.568-4.43-49.493c2.903-3.951,8.476-4.811,12.444-1.922c3.969,2.891,4.834,8.436,1.93,12.388
	C333.67,22.04,336.738,29.467,345.132,44.521z M393.774,44.525c-8.392-15.055-11.461-22.483-5.624-30.425
	c2.904-3.951,2.04-9.498-1.929-12.388c-3.968-2.891-9.54-2.03-12.444,1.92c-13.174,17.926-3.416,35.43,4.425,49.495
	c9.382,16.83,12.354,24.631,3.813,34.144c-3.277,3.651-2.961,9.254,0.707,12.516c1.699,1.512,3.818,2.254,5.93,2.254
	c2.448,0,4.884-0.998,6.643-2.957C413.12,79.227,401.938,59.17,393.774,44.525z"/>
<path style="fill:#663310;" d="M7.792,232.785c0-4.895,3.987-8.864,8.904-8.864h478.609c4.917,0,8.904,3.969,8.904,8.864
	c0,4.895-3.987,8.864-8.904,8.864H16.696C11.779,241.649,7.792,237.68,7.792,232.785z M495.305,494.272H16.696
	c-4.917,0-8.904,3.969-8.904,8.864c0,4.895,3.987,8.864,8.904,8.864h478.609c4.917,0,8.904-3.968,8.904-8.864
	C504.209,498.241,500.222,494.272,495.305,494.272z"/>
<path style="fill:#415E5C;" d="M121.713,111.513v9.36c0,13.7-11.223,24.904-24.936,24.904h-0.006
	c-13.713,0-24.936-11.204-24.936-24.904v-9.36c0-13.7,11.223-24.904,24.936-24.904h0.006
	C110.49,86.608,121.713,97.813,121.713,111.513z"/>
<path style="fill:#B76700;" d="M224.961,111.513v34.265h-49.877v-34.265c0-13.699,11.223-24.904,24.936-24.904h0.006
	C213.74,86.608,224.961,97.814,224.961,111.513z"/>
<g>
</g>
<g>
</g>
<g>
</g>
<g>
</g>
<g>
</g>
<g>
</g>
<g>
</g>
<g>
</g>
<g>
</g>
<g>
</g>
<g>
</g>
<g>
</g>
<g>
</g>
<g>
</g>
<g>
</g>
</svg>
