<svg xmlns="http://www.w3.org/2000/svg" enable-background="new 0 0 64 64" viewBox="0 0 64 64"><path fill="#4e5293" d="M49 29.1c-3.1 0-5.6 2.5-5.6 5.6s2.5 5.6 5.6 5.6c3.1 0 5.6-2.5 5.6-5.6S52.1 29.1 49 29.1zM49 39.3c-2.5 0-4.6-2.1-4.6-4.6s2.1-4.6 4.6-4.6c2.5 0 4.6 2.1 4.6 4.6S51.6 39.3 49 39.3zM34.2 55.7c-.8 0-1.5.7-1.5 1.5 0 .8.7 1.5 1.5 1.5.8 0 1.5-.7 1.5-1.5C35.7 56.4 35 55.7 34.2 55.7zM34.2 57.8c-.3 0-.5-.2-.5-.5 0-.3.2-.5.5-.5.3 0 .5.2.5.5C34.7 57.6 34.5 57.8 34.2 57.8zM12.6 55.7c-.8 0-1.5.7-1.5 1.5 0 .8.7 1.5 1.5 1.5.8 0 1.5-.7 1.5-1.5C14.1 56.4 13.4 55.7 12.6 55.7zM12.6 57.8c-.3 0-.5-.2-.5-.5 0-.3.2-.5.5-.5.3 0 .5.2.5.5C13.1 57.6 12.9 57.8 12.6 57.8z"/><path fill="#4e5293" d="M62.3,24.1c-0.3-0.9-0.8-1.6-1.4-2.3c2.6-1.9,3.8-5.4,2.7-8.4c-1-2.7-3.4-4.5-6.3-4.9c0.1-1-0.1-2.1-0.4-3.1
			C55.3,1.2,50.6-1,46.3,0.4c-0.5,0.2-0.9,0.4-1.4,0.6c-1.7-1.1-3.7-1.3-5.6-0.7c-1.3,0.5-2.4,1.3-3.2,2.4c-1.5-0.6-3.3-0.7-4.9-0.1
			c-3.3,1.1-4.7,4.8-4,7.6c-0.7,0.4-2.2,1.5-3.1,3.7h-3.3c-0.1,0-0.3,0.1-0.4,0.2c-0.1,0.1-0.1,0.2-0.1,0.4l0.1,1.4
			c-1.7,0.5-3.2,1.4-4.5,2.6c-2,2-3.1,4.7-3.1,7.5v1.3h-0.4c-0.6,0-1.1,0.5-1.1,1.1v1.9c0,0.6,0.5,1.1,1.1,1.1h0.9
			c0.2,4,1.5,7.5,3.4,10v3c-2.2,0.8-14.2,5.1-15.8,10.2c-1.2,3.8-0.8,8.7-0.8,8.9c0,0.2,0.2,0.4,0.5,0.4h45.6c0.3,0,0.5-0.2,0.5-0.4
			c0-0.2,0.4-5.1-0.8-8.9c-1.6-5.1-13.6-9.5-15.8-10.2v-3c1.5-1.9,2.7-4.5,3.2-7.5c0.7,0.3,1.4,0.5,2.2,0.6v1.7
			c0,0.2,0.2,0.4,0.4,0.5l2.8,0.6c0.2,1,0.6,1.9,1.2,2.8l-1.5,2.4c-0.1,0.2-0.1,0.5,0.1,0.6l2.2,2.2c0.2,0.2,0.4,0.2,0.6,0.1
			l2.4-1.5c0.9,0.5,1.9,0.9,2.8,1.2l0.6,2.8c0,0.2,0.2,0.4,0.5,0.4h3.2c0.2,0,0.4-0.2,0.5-0.4l0.6-2.8c1-0.3,1.9-0.6,2.8-1.2
			l2.4,1.5c0.2,0.1,0.4,0.1,0.6-0.1l2.2-2.2c0.2-0.2,0.2-0.4,0.1-0.6l-1.5-2.4c0.5-0.9,0.9-1.8,1.2-2.8l2.8-0.6
			c0.2,0,0.4-0.3,0.4-0.5v-3.2c0-0.2-0.2-0.4-0.4-0.5l-2.4-0.5C62.4,30,63.3,26.9,62.3,24.1z M25.5,15l-0.2,3.7
			c-0.5-0.4-1.2-0.6-1.9-0.6c-0.7,0-1.3,0.2-1.9,0.6L21.3,15H25.5z M23.4,19c1.4,0,2.5,1.1,2.5,2.5c0,1.4-1.1,2.5-2.5,2.5
			c-0.7,0-1.3-0.3-1.8-0.7c0,0,0,0,0,0c-0.4-0.5-0.7-1.1-0.7-1.8C20.9,20.2,22,19,23.4,19z M26.2,19.5l0.1-2.6
			c3.9,1.3,6.7,5,6.7,9.2v1.3h-7.3l0.2-3.5c0.6-0.6,0.9-1.4,0.9-2.3C26.9,20.8,26.6,20.1,26.2,19.5z M24.9,24.7l-0.2,2.7H22
			l-0.2-2.7c0.5,0.2,1,0.4,1.6,0.4C23.9,25,24.5,24.9,24.9,24.7z M13.7,26c0-2.6,1-5,2.8-6.8c1.1-1.1,2.4-1.9,3.8-2.3l0.1,2.6
			c-0.4,0.6-0.7,1.3-0.7,2c0,0.9,0.3,1.7,0.9,2.3l0.2,3.5h-7.3V26z M13.1,46.9l0.6,6.1h-2.6l-0.9-4.8C11.2,47.7,12.2,47.3,13.1,46.9
			z M6.9,56.3V63H1C1,61.7,0.9,57.9,1.8,55c0.7-2.3,4.1-4.6,7.5-6.3l0.8,4.4h0C8.3,53,6.9,54.5,6.9,56.3z M38.9,63H7.8v-6.8
			c0-1.3,1-2.3,2.3-2.3h26.5c1.3,0,2.3,1,2.3,2.3V63z M37.5,48.6c3.4,1.8,6.7,4,7.5,6.3c1,3,0.8,6.8,0.8,8.1h-5.8v-6.8
			c0-1.8-1.5-3.3-3.3-3.3h0L37.5,48.6z M33.7,46.9c0.9,0.4,1.9,0.8,2.8,1.3L35.6,53h-2.6L33.7,46.9z M32.8,46.5L32.1,53H14.7
			L14,46.5c1.5-0.6,2.6-1,3.1-1.2l6,4.9c0.1,0.1,0.2,0.1,0.3,0.1c0.1,0,0.2,0,0.3-0.1l6-4.9C30.2,45.5,31.3,45.9,32.8,46.5z
			 M17.7,44.5v-2c1.6,1.6,3.6,2.5,5.7,2.5c2.1,0,4.1-0.9,5.7-2.5v2l-5.7,4.7L17.7,44.5z M29.3,40.9c-0.1,0-0.1,0.1-0.1,0.2
			c-1.6,1.9-3.6,3-5.7,3c-2.2,0-4.2-1.1-5.7-3c0-0.1-0.1-0.1-0.1-0.2c-1.8-2.3-3.1-5.6-3.2-9.4h18.3C32.3,35.3,31.1,38.6,29.3,40.9z
			 M12.3,30.5c-0.1,0-0.1,0-0.1-0.1v-1.9c0-0.1,0-0.1,0.1-0.1h22.1c0.1,0,0.1,0.1,0.1,0.1v1.9c0,0.1,0,0.1-0.1,0.1H12.3z M61.7,33.5
			v2.4L59,36.4c-0.2,0-0.3,0.2-0.4,0.4c-0.2,1.1-0.7,2.1-1.3,3.1c-0.1,0.2-0.1,0.4,0,0.5l1.5,2.3l-1.7,1.7L54.8,43
			c-0.2-0.1-0.4-0.1-0.5,0c-1,0.6-2,1-3.1,1.3c-0.2,0-0.3,0.2-0.4,0.4l-0.6,2.7h-2.4l-0.6-2.7c0-0.2-0.2-0.3-0.4-0.4
			c-1.1-0.2-2.1-0.7-3.1-1.3c-0.2-0.1-0.4-0.1-0.5,0l-2.3,1.5l-1.7-1.7l1.5-2.3c0.1-0.2,0.1-0.4,0-0.5c-0.6-1-1-2-1.3-3.1
			c0-0.2-0.2-0.3-0.4-0.4l-2.7-0.6v-2.4l2.7-0.6c0.2,0,0.3-0.2,0.4-0.4c0.2-1.1,0.7-2.1,1.3-3.1c0.1-0.2,0.1-0.4,0-0.5l-1.5-2.3
			l1.7-1.7l2.3,1.5c0.2,0.1,0.4,0.1,0.5,0c1-0.6,2-1,3.1-1.3c0.2,0,0.3-0.2,0.4-0.4l0.6-2.7h2.4l0.6,2.7c0,0.2,0.2,0.3,0.4,0.4
			c1.1,0.2,2.1,0.7,3.1,1.3c0.2,0.1,0.4,0.1,0.5,0l2.3-1.5l1.7,1.7l-1.5,2.3c-0.1,0.2-0.1,0.4,0,0.5c0.6,1,1,2,1.3,3.1
			c0,0.2,0.2,0.3,0.4,0.4L61.7,33.5z M59.2,31.3c-0.2-0.7-0.5-1.5-0.9-2.1l1.5-2.4c0.1-0.2,0.1-0.5-0.1-0.6l-2.2-2.2
			c-0.2-0.2-0.4-0.2-0.6-0.1l-2.4,1.5c-0.9-0.5-1.9-0.9-2.8-1.2l-0.6-2.8c0-0.2-0.2-0.4-0.5-0.4h-3.2c-0.2,0-0.4,0.2-0.5,0.4
			l-0.6,2.8c-1,0.3-1.9,0.6-2.8,1.2l-2.4-1.5c-0.2-0.1-0.4-0.1-0.6,0.1l-2.2,2.2c-0.2,0.2-0.2,0.4-0.1,0.6l1.5,2.4
			c-0.5,0.9-0.9,1.8-1.2,2.8l-2.8,0.6c-0.2,0-0.4,0.2-0.4,0.5v0.5c-0.7-0.1-1.4-0.3-2-0.6c0.1-0.5,0.1-1,0.1-1.5h0.9
			c0.6,0,1.1-0.5,1.1-1.1v-1.9c0-0.6-0.5-1.1-1.1-1.1H34V26c0-4.7-3.1-8.8-7.6-10.2l0.1-1.4c0-0.1,0-0.3-0.1-0.4
			C26.3,14,26.1,14,26,14h-0.8c1.1-2.2,2.7-2.9,2.8-3c0.2-0.1,0.4-0.4,0.3-0.6c-0.8-2.5,0.3-5.8,3.3-6.8c1.5-0.5,3.1-0.4,4.5,0.3
			c0.2,0.1,0.5,0,0.6-0.2c0.6-1.1,1.6-1.9,2.9-2.4c1.7-0.6,3.6-0.3,5,0.7c0.2,0.1,0.4,0.1,0.5,0c0.5-0.3,0.9-0.5,1.5-0.7
			c3.8-1.3,7.9,0.6,9.3,4.3c0.4,1,0.5,2.1,0.3,3.1c0,0.1,0,0.3,0.1,0.4c0.1,0.1,0.2,0.2,0.3,0.2c2.7,0.2,5,1.9,5.9,4.3
			c1,2.9-0.1,6-2.8,7.6c-0.1,0.1-0.2,0.2-0.2,0.4c0,0.2,0,0.3,0.1,0.4c0.7,0.7,1.2,1.5,1.5,2.4C62.2,26.8,61.4,29.5,59.2,31.3z"/><path fill="#cdd5dd" d="M13.7,53h-2.6l-0.9-4.8c1-0.5,2-0.9,2.8-1.3L13.7,53z"/><path fill="#99d3ba" d="M45.7,63h-5.8v-6.8c0-1.8-1.5-3.3-3.3-3.3h0l0.8-4.4c3.4,1.8,6.7,4,7.5,6.3C45.9,57.9,45.8,61.7,45.7,63z"/><path fill="#cdd5dd" d="M36.6,54H10.1c-1.3,0-2.3,1-2.3,2.3V63h31.1v-6.8C38.9,55,37.9,54,36.6,54z M12.6,58.8
			c-0.8,0-1.5-0.7-1.5-1.5c0-0.8,0.7-1.5,1.5-1.5c0.8,0,1.5,0.7,1.5,1.5C14.1,58.1,13.4,58.8,12.6,58.8z M34.2,58.8
			c-0.8,0-1.5-0.7-1.5-1.5c0-0.8,0.7-1.5,1.5-1.5c0.8,0,1.5,0.7,1.5,1.5C35.7,58.1,35,58.8,34.2,58.8z"/><path fill="#b6c4cd" d="M12.1,54c-1.1,0-1.9,1-1.9,2.3V63H7.8v-6.8c0-1.3,1-2.3,2.3-2.3H12.1z"/><path fill="#d9e0e7" d="M38.9,56.3V63h-2.3v-6.8c0-1.3-0.9-2.3-1.9-2.3h2C37.9,54,38.9,55,38.9,56.3z"/><circle cx="12.6" cy="57.3" r=".5" fill="#adb3c6"/><circle cx="34.2" cy="57.3" r=".5" fill="#adb3c6"/><path fill="#99d3ba" d="M10.1 53L10.1 53c-1.8 0-3.3 1.5-3.3 3.3V63H1C1 61.7.9 57.9 1.8 55c.7-2.3 4.1-4.6 7.5-6.3L10.1 53zM32.8 46.5L32.1 53H14.7L14 46.5c1.5-.6 2.6-1 3.1-1.2l6 4.9c.1.1.2.1.3.1.1 0 .2 0 .3-.1l6-4.9C30.2 45.5 31.3 45.9 32.8 46.5z"/><path fill="#b9e0cf" d="M45.7,63h-3.3c0.1-1.3,0.2-4.9-0.7-7.8c-0.5-1.8-2.4-3.5-4.6-5l0.3-1.6c3.4,1.8,6.7,4,7.5,6.3
			C45.9,57.9,45.8,61.7,45.7,63z"/><path fill="#8ac3a9" d="M9.6,50.2c-2.2,1.5-4.1,3.2-4.6,5c-0.8,2.9-0.7,6.6-0.7,7.8H1C1,61.7,0.9,57.9,1.8,55
			c0.7-2.3,4.1-4.6,7.5-6.3L9.6,50.2z"/><path fill="#b9e0cf" d="M32.8,46.5l-0.1,1.3c-1.5-0.7-3.2-1.6-3.7-1.8l0.8-0.6C30.2,45.5,31.3,45.9,32.8,46.5z"/><path fill="#8ac3a9" d="M17.9,45.9c-0.5,0.2-2.2,1.1-3.7,1.8L14,46.5c1.5-0.6,2.6-1,3.1-1.2L17.9,45.9z"/><path fill="#cdd5dd" d="M36.5,48.2L35.6,53h-2.6l0.6-6.1C34.6,47.3,35.6,47.7,36.5,48.2z"/><path fill="#b6c4cd" d="M13.2,48.2c-0.8,0.4-1.5,0.7-1.8,0.9c-0.3,0.2-0.6,0.4-0.9,0.5l-0.3-1.4c1-0.5,2-0.9,2.8-1.3L13.2,48.2z"/><path fill="#d9e0e7" d="M36.5,48.2l-0.3,1.4c-0.3-0.2-0.6-0.4-0.9-0.5c-0.4-0.2-1-0.5-1.8-0.9l0.1-1.3C34.6,47.3,35.6,47.7,36.5,48.2
			z"/><path fill="#f4d398" d="M29.1,42.5v2l-5.7,4.7l-5.7-4.7v-2c1.6,1.6,3.6,2.5,5.7,2.5C25.5,45,27.5,44.1,29.1,42.5z"/><path fill="#fbdea2" d="M32.5,31.5c-0.2,3.8-1.4,7.1-3.2,9.4c-0.1,0-0.1,0.1-0.1,0.2c-1.6,1.9-3.6,3-5.7,3c-2.2,0-4.2-1.1-5.7-3
			c0-0.1-0.1-0.1-0.1-0.2c-1.8-2.3-3.1-5.6-3.2-9.4H32.5z"/><path fill="#f4d398" d="M23.1,44c-2-0.1-3.9-1.2-5.4-3c0-0.1-0.1-0.1-0.1-0.2c-1.8-2.3-3.1-5.6-3.2-9.4h1.9c0.1,3.8,1.1,7.1,2.6,9.4
			c0.1,0,0.1,0.1,0.1,0.2C20,42.8,21.5,43.9,23.1,44z"/><path fill="#ffe5ab" d="M32.5,31.5c-0.2,3.8-1.4,7.1-3.2,9.4c-0.1,0-0.1,0.1-0.1,0.2c-1.5,1.8-3.4,2.9-5.4,3c1.6-0.1,3.1-1.2,4.2-3
			c0-0.1,0.1-0.1,0.1-0.2c1.5-2.3,2.4-5.6,2.6-9.4H32.5z"/><path fill="#bce0f6" d="M25.9,21.5c0,1.4-1.1,2.5-2.5,2.5c-0.7,0-1.3-0.3-1.8-0.7c0,0,0,0,0,0c-0.4-0.5-0.7-1.1-0.7-1.8
			c0-1.4,1.1-2.5,2.5-2.5C24.8,19,25.9,20.2,25.9,21.5z"/><path fill="#cae6f8" d="M25.9,21.5c0,1.3-1,2.4-2.3,2.5c0.8-0.1,1.4-1.2,1.4-2.5c0-1.3-0.6-2.4-1.4-2.5
			C24.9,19.1,25.9,20.2,25.9,21.5z"/><path fill="#a8d7e8" d="M23.2,24.1c-0.6,0-1.2-0.3-1.6-0.7c0,0,0,0,0,0c-0.4-0.5-0.7-1.1-0.7-1.8c0-1.3,1-2.4,2.4-2.5
			c-0.8,0.1-1.4,1.2-1.4,2.5c0,0.7,0.2,1.3,0.4,1.8c0,0,0,0,0,0C22.5,23.7,22.9,24,23.2,24.1z"/><path fill="#f1ca6c" d="M34.6 28.5v1.9c0 .1 0 .1-.1.1H12.3c-.1 0-.1 0-.1-.1v-1.9c0-.1 0-.1.1-.1h22.1C34.5 28.4 34.6 28.4 34.6 28.5zM25.5 15l-.2 3.7c-.5-.4-1.2-.6-1.9-.6-.7 0-1.3.2-1.9.6L21.3 15H25.5zM24.9 24.7l-.2 2.7H22l-.2-2.7c.5.2 1 .4 1.6.4C23.9 25 24.5 24.9 24.9 24.7z"/><path fill="#ffdc7c" d="M25.5,15l-0.2,3.7c-0.3-0.2-0.6-0.3-0.9-0.4l0.1-3.2H25.5z"/><path fill="#e2bb62" d="M22.4,18.2c-0.3,0.1-0.6,0.2-0.9,0.4L21.3,15h1L22.4,18.2z"/><path fill="#ffdc7c" d="M24.9,24.7l-0.2,2.7h-0.7l0.1-2.4C24.4,24.9,24.7,24.8,24.9,24.7z"/><path fill="#e2bb62" d="M22.7,27.4H22l-0.2-2.7c0.2,0.1,0.5,0.2,0.8,0.3L22.7,27.4z"/><path fill="#f1ca6c" d="M33 26v1.3h-7.3l.2-3.5c.6-.6.9-1.4.9-2.3 0-.7-.2-1.4-.7-2l.1-2.6C30.3 18.2 33 21.8 33 26zM21 27.4h-7.3V26c0-2.6 1-5 2.8-6.8 1.1-1.1 2.4-1.9 3.8-2.3l.1 2.6c-.4.6-.7 1.3-.7 2 0 .9.3 1.7.9 2.3L21 27.4z"/><path fill="#e2bb62" d="M14.6,30.5h-2.3c-0.1,0-0.1,0-0.1-0.1v-1.9c0-0.1,0-0.1,0.1-0.1h2.3c0,0-0.1,0.1-0.1,0.1v1.9
			C14.6,30.4,14.6,30.5,14.6,30.5z"/><path fill="#ffdc7c" d="M34.6 28.5v1.9c0 .1 0 .1-.1.1h-2.3c0 0 .1 0 .1-.1v-1.9c0-.1 0-.1-.1-.1h2.3C34.5 28.4 34.6 28.4 34.6 28.5zM33 26v1.3h-2V26c0-3.9-1.9-7.4-4.7-8.9l0-.3C30.3 18.2 33 21.8 33 26z"/><path fill="#e2bb62" d="M20.4,17.2c-0.9,0.5-1.7,1.2-2.4,2c-1.4,1.8-2.2,4.2-2.2,6.8v1.3h-2V26c0-2.6,1-5,2.8-6.8
			c1.1-1.1,2.4-1.9,3.8-2.3L20.4,17.2z"/><path fill="#ec9bae" d="M59,32.9c-0.2,0-0.3-0.2-0.4-0.4c-0.2-1.1-0.7-2.1-1.3-3.1c-0.1-0.2-0.1-0.4,0-0.5l1.5-2.3l-1.7-1.7
			l-2.3,1.5c-0.2,0.1-0.4,0.1-0.5,0c-1-0.6-2-1-3.1-1.3c-0.2,0-0.3-0.2-0.4-0.4L50.2,22h-2.4l-0.6,2.7c0,0.2-0.2,0.3-0.4,0.4
			c-1.1,0.2-2.1,0.7-3.1,1.3c-0.2,0.1-0.4,0.1-0.5,0l-2.3-1.5l-1.7,1.7l1.5,2.3c0.1,0.2,0.1,0.4,0,0.5c-0.6,1-1,2-1.3,3.1
			c0,0.2-0.2,0.3-0.4,0.4l-2.7,0.6v2.4l2.7,0.6c0.2,0,0.3,0.2,0.4,0.4c0.2,1.1,0.7,2.1,1.3,3.1c0.1,0.2,0.1,0.4,0,0.5l-1.5,2.3
			l1.7,1.7l2.3-1.5c0.2-0.1,0.4-0.1,0.5,0c1,0.6,2,1,3.1,1.3c0.2,0,0.3,0.2,0.4,0.4l0.6,2.7h2.4l0.6-2.7c0-0.2,0.2-0.3,0.4-0.4
			c1.1-0.2,2.1-0.7,3.1-1.3c0.2-0.1,0.4-0.1,0.5,0l2.3,1.5l1.7-1.7l-1.5-2.3c-0.1-0.2-0.1-0.4,0-0.5c0.6-1,1-2,1.3-3.1
			c0-0.2,0.2-0.3,0.4-0.4l2.7-0.6v-2.4L59,32.9z M43.4,34.7c0-3.1,2.5-5.6,5.6-5.6c3.1,0,5.6,2.5,5.6,5.6s-2.5,5.6-5.6,5.6
			C45.9,40.2,43.4,37.7,43.4,34.7z"/><path fill="#adb3c6" d="M61.3,24.4c0.9,2.5,0.1,5.1-2.1,6.9c-0.2-0.7-0.5-1.5-0.9-2.1l1.5-2.4c0.1-0.2,0.1-0.5-0.1-0.6l-2.2-2.2
			c-0.2-0.2-0.4-0.2-0.6-0.1l-2.4,1.5c-0.9-0.5-1.9-0.9-2.8-1.2l-0.6-2.8c0-0.2-0.2-0.4-0.5-0.4h-3.2c-0.2,0-0.4,0.2-0.5,0.4
			l-0.6,2.8c-1,0.3-1.9,0.6-2.8,1.2l-2.4-1.5c-0.2-0.1-0.4-0.1-0.6,0.1l-2.2,2.2c-0.2,0.2-0.2,0.4-0.1,0.6l1.5,2.4
			c-0.5,0.9-0.9,1.8-1.2,2.8l-2.8,0.6c-0.2,0-0.4,0.2-0.4,0.5v0.5c-0.7-0.1-1.4-0.3-2-0.6c0.1-0.5,0.1-1,0.1-1.5h0.9
			c0.6,0,1.1-0.5,1.1-1.1v-1.9c0-0.6-0.5-1.1-1.1-1.1H34V26c0-4.7-3.1-8.8-7.6-10.2l0.1-1.4c0-0.1,0-0.3-0.1-0.4
			C26.3,14,26.1,14,26,14h-0.8c1.1-2.2,2.7-2.9,2.8-3c0.2-0.1,0.4-0.4,0.3-0.6c-0.8-2.5,0.3-5.8,3.3-6.8c1.5-0.5,3.1-0.4,4.5,0.3
			c0.2,0.1,0.5,0,0.6-0.2c0.6-1.1,1.6-1.9,2.9-2.4c1.7-0.6,3.6-0.3,5,0.7c0.2,0.1,0.4,0.1,0.5,0c0.5-0.3,0.9-0.5,1.5-0.7
			c3.8-1.3,7.9,0.6,9.3,4.3c0.4,1,0.5,2.1,0.3,3.1c0,0.1,0,0.3,0.1,0.4c0.1,0.1,0.2,0.2,0.3,0.2c2.7,0.2,5,1.9,5.9,4.3
			c1,2.9-0.1,6-2.8,7.6c-0.1,0.1-0.2,0.2-0.2,0.4c0,0.2,0,0.3,0.1,0.4C60.5,22.7,61,23.5,61.3,24.4z"/><path fill="#9ea3b5" d="M35.1,3.5c-0.5,0-1,0.1-1.5,0.4c-2.5,1.1-3.4,4.8-2.8,7.5c0.1,0.3,0,0.6-0.2,0.7c-0.1,0-2.4,1.5-3,4.3
			c-0.4-0.2-0.7-0.3-1.1-0.4l0.1-1.4c0-0.1,0-0.3-0.1-0.4C26.3,14,26.1,14,26,14h-0.8c1.1-2.2,2.7-2.9,2.8-3
			c0.2-0.1,0.4-0.4,0.3-0.6c-0.8-2.5,0.3-5.8,3.3-6.8C32.7,3.2,33.9,3.2,35.1,3.5z"/><path fill="#bfc6db" d="M61.3,24.4c0.9,2.5,0.1,5.1-2.1,6.9c-0.1-0.4-0.3-0.8-0.5-1.2c0.1-0.6,0.1-1.2,0.1-1.8l1-1.5
			c0.1-0.2,0.1-0.5-0.1-0.6l-2.2-2.2c-0.1-0.1-0.2-0.1-0.3-0.1c0,0,0-0.1,0-0.1c0-0.2,0.1-0.3,0.2-0.4c2.2-1.8,3.2-5.2,2.3-8.3
			c-0.8-2.7-2.7-4.6-5-4.7c-0.1,0-0.2-0.1-0.3-0.2c-0.1-0.1-0.1-0.3-0.1-0.4c0.1-1.2,0-2.3-0.3-3.4c-0.9-3-3-5-5.4-5.1
			c3.2-0.2,6.2,1.7,7.3,4.7c0.4,1,0.5,2.1,0.3,3.1c0,0.1,0,0.3,0.1,0.4c0.1,0.1,0.2,0.2,0.3,0.2c2.7,0.2,5,1.9,5.9,4.3
			c1,2.9-0.1,6-2.8,7.6c-0.1,0.1-0.2,0.2-0.2,0.4c0,0.2,0,0.3,0.1,0.4C60.5,22.7,61,23.5,61.3,24.4z"/><path fill="#d98c9f" d="M49,27.5c-3.9,0-7.1,3.2-7.1,7.1c0,3.9,3.2,7.1,7.1,7.1c3.9,0,7.1-3.2,7.1-7.1C56.1,30.7,53,27.5,49,27.5z
		 M49,40.2c-3.1,0-5.6-2.5-5.6-5.6s2.5-5.6,5.6-5.6c3.1,0,5.6,2.5,5.6,5.6S52.1,40.2,49,40.2z"/></svg>