<?xml version="1.0" encoding="iso-8859-1"?>
<!-- Generator: Adobe Illustrator 19.0.0, SVG Export Plug-In . SVG Version: 6.00 Build 0)  -->
<svg version="1.1" id="Layer_1" xmlns="http://www.w3.org/2000/svg" xmlns:xlink="http://www.w3.org/1999/xlink" x="0px" y="0px"
	 viewBox="0 0 512 512" style="enable-background:new 0 0 512 512;" xml:space="preserve">
<rect x="0.004" y="0.001" style="fill:#B3B3B3;" width="511.99" height="503.997"/>
<rect x="24.008" y="111.994" style="fill:#F2BF7E;" width="64" height="111.995"/>
<g>
	<rect x="119.997" y="8.001" style="fill:#FFFFFF;" width="271.995" height="72.003"/>
	<rect x="424.003" y="279.996" style="fill:#FFFFFF;" width="47.995" height="96"/>
</g>
<rect x="119.997" y="111.994" style="fill:#AA603B;" width="271.995" height="391.992"/>
<g>
	<rect x="119.997" y="111.994" style="fill:#F2BF7E;" width="47.995" height="391.992"/>
	<rect x="256" y="111.994" style="fill:#F2BF7E;" width="23.997" height="391.992"/>
</g>
<rect y="496.389" width="512" height="15.61"/>
<polygon points="399.61,488.062 384,488.062 384,119.672 128,119.672 128,488.062 112.39,488.062 112.39,104.062 399.61,104.062 "/>
<rect x="247.675" y="127.999" width="15.61" height="360.065"/>
<path d="M479.802,383.8h-63.61V272.191h63.61V383.8z M431.802,368.19h32.39v-80.389h-32.39V368.19z"/>
<rect x="440.195" y="303.869" width="15.61" height="15.61"/>
<rect x="440.195" y="336.129" style="fill:#AA603B;" width="15.61" height="15.61"/>
<path d="M399.802,87.805H112.197V0.196h287.606V87.805z M127.806,72.195h256.386v-56.39H127.806V72.195z"/>
<polygon style="fill:#F2BF7E;" points="149.521,61.519 138.482,50.481 160.001,28.962 181.52,50.481 170.482,61.519 160.001,51.038 
	"/>
<polygon style="fill:#C5FFCA;" points="216.001,59.038 194.482,37.519 205.52,26.481 216.001,36.963 226.482,26.481 237.519,37.519 
	"/>
<rect x="256" y="40.582" style="fill:#F2BF7E;" width="15.61" height="15.61"/>
<rect x="279.935" y="40.582" style="fill:#C5FFCA;" width="15.61" height="15.61"/>
<g>
	<rect x="303.87" y="40.582" style="fill:#F2BF7E;" width="15.61" height="15.61"/>
	<rect x="327.805" y="40.582" style="fill:#F2BF7E;" width="16.65" height="15.61"/>
	<rect x="351.74" y="40.582" style="fill:#F2BF7E;" width="16.65" height="15.61"/>
</g>
<path d="M95.807,231.803H16.199V104.194h79.609V231.803z M31.809,216.193h48.389v-96.388H31.809V216.193z"/>
<g>
	<rect x="39.545" y="136.324" style="fill:#FFFFFF;" width="32.26" height="15.61"/>
	<rect x="39.545" y="160.259" style="fill:#FFFFFF;" width="24.976" height="15.61"/>
	<rect x="39.545" y="184.194" style="fill:#FFFFFF;" width="16.65" height="15.61"/>
</g>
<g>
</g>
<g>
</g>
<g>
</g>
<g>
</g>
<g>
</g>
<g>
</g>
<g>
</g>
<g>
</g>
<g>
</g>
<g>
</g>
<g>
</g>
<g>
</g>
<g>
</g>
<g>
</g>
<g>
</g>
</svg>
