<?xml version="1.0" encoding="iso-8859-1"?>
<!-- Generator: Adobe Illustrator 19.0.0, SVG Export Plug-In . SVG Version: 6.00 Build 0)  -->
<svg version="1.1" id="Capa_1" xmlns="http://www.w3.org/2000/svg" xmlns:xlink="http://www.w3.org/1999/xlink" x="0px" y="0px"
	 viewBox="0 0 404.692 404.692" style="enable-background:new 0 0 404.692 404.692;" xml:space="preserve">
<g>
	<rect x="26.69" y="87.846" style="fill:#CCCCCC;" width="350.5" height="284"/>
	<path style="fill:#B3B3B3;" d="M349.69,344.346v-284c0-15.19,12.31-27.5,27.5-27.5s27.5,12.31,27.5,27.5v284H349.69z"/>
	<path style="fill:#B3B3B3;" d="M342.109,336.765V87.846h35.081v284C357.815,371.846,342.109,356.139,342.109,336.765z"/>
	<path style="fill:#B3B3B3;" d="M61.771,336.765V87.846H26.69v284C46.065,371.846,61.771,356.139,61.771,336.765z"/>
	<path style="fill:#CCCCCC;" d="M349.69,344.346v-284c0-15.19,12.31-27.5,27.5-27.5v311.5H349.69z"/>
	<path style="fill:#999999;" d="M349.692,344.346c0-5.01,1.34-9.71,3.69-13.75c4.74-8.22,13.63-13.75,23.81-13.75
		s19.07,5.53,23.81,13.75c2.35,4.04,3.69,8.74,3.69,13.75c0,15.19-12.31,27.5-27.5,27.5S349.692,359.536,349.692,344.346z"/>
	<path style="fill:#808080;" d="M353.382,330.596c4.74-8.22,13.63-13.75,23.81-13.75s19.07,5.53,23.81,13.75
		c-4.74,8.22-13.63,13.75-23.81,13.75S358.122,338.816,353.382,330.596z"/>
	<path style="fill:#B3B3B3;" d="M55,344.346v-284c0-15.19-12.31-27.5-27.5-27.5S0,45.156,0,60.346v284H55z"/>
	<path style="fill:#CCCCCC;" d="M55,344.346v-284c0-15.19-12.31-27.5-27.5-27.5v311.5H55z"/>
	<circle style="fill:#999999;" cx="27.5" cy="344.346" r="27.5"/>
	<path style="fill:#808080;" d="M3.69,330.596c4.74-8.22,13.63-13.75,23.81-13.75s19.07,5.53,23.81,13.75
		c-4.74,8.22-13.63,13.75-23.81,13.75S8.43,338.816,3.69,330.596z"/>
	<path style="fill:#666666;" d="M229.342,283.346c-27.294,0-49.5-22.206-49.5-49.5s22.206-49.5,49.5-49.5
		c27.294,0,49.5,22.206,49.5,49.5S256.636,283.346,229.342,283.346z M229.342,191.346c-23.435,0-42.5,19.065-42.5,42.5
		s19.065,42.5,42.5,42.5s42.5-19.065,42.5-42.5S252.776,191.346,229.342,191.346z"/>
	<g>
		<g>
			<polygon style="fill:#F15A24;" points="112.342,237.346 102.842,237.346 102.842,227.846 109.842,227.846 109.842,230.346 
				112.342,230.346 			"/>
			<path style="fill:#F15A24;" d="M214.564,237.346h-12.777v-7h12.777V237.346z M189.009,237.346h-12.778v-7h12.778V237.346z
				 M163.454,237.346h-12.778v-7h12.778V237.346z M137.898,237.346H125.12v-7h12.778V237.346z"/>
			<polygon style="fill:#F15A24;" points="236.842,237.346 227.342,237.346 227.342,230.346 229.842,230.346 229.842,227.846 
				236.842,227.846 			"/>
			<path style="fill:#F15A24;" d="M236.842,215.846h-7v-12h7V215.846z M236.842,191.846h-7v-12h7V191.846z M236.842,167.846h-7v-12
				h7V167.846z"/>
			<polygon style="fill:#F15A24;" points="236.842,143.846 229.842,143.846 229.842,141.346 227.342,141.346 227.342,134.346 
				236.842,134.346 			"/>
			<path style="fill:#F15A24;" d="M214.564,141.346h-12.778v-7h12.778V141.346z M189.009,141.346h-12.778v-7h12.778V141.346z
				 M163.453,141.346h-12.778v-7h12.778V141.346z M137.897,141.346H125.12v-7h12.778V141.346z"/>
			<polygon style="fill:#F15A24;" points="109.842,143.846 102.842,143.846 102.842,134.346 112.342,134.346 112.342,141.346 
				109.842,141.346 			"/>
			<path style="fill:#F15A24;" d="M109.842,215.847h-7v-12.001h7V215.847z M109.842,191.846h-7v-12h7V191.846z M109.842,167.846h-7
				v-12h7V167.846z"/>
		</g>
	</g>
</g>
<g>
</g>
<g>
</g>
<g>
</g>
<g>
</g>
<g>
</g>
<g>
</g>
<g>
</g>
<g>
</g>
<g>
</g>
<g>
</g>
<g>
</g>
<g>
</g>
<g>
</g>
<g>
</g>
<g>
</g>
</svg>
