<?xml version="1.0" encoding="iso-8859-1"?>
<!-- Generator: Adobe Illustrator 19.0.0, SVG Export Plug-In . SVG Version: 6.00 Build 0)  -->
<svg version="1.1" id="Layer_1" xmlns="http://www.w3.org/2000/svg" xmlns:xlink="http://www.w3.org/1999/xlink" x="0px" y="0px"
	 viewBox="0 0 511.999 511.999" style="enable-background:new 0 0 511.999 511.999;" xml:space="preserve">
<path style="fill:#FFC674;" d="M299.573,82.09c0-38.726-31.394-70.118-70.118-70.118s-70.118,31.394-70.118,70.118
	c0,24.434,12.501,45.945,31.452,58.498l-10.321,56.766h97.974l-10.321-56.766C287.072,128.036,299.573,106.524,299.573,82.09z"/>
<polygon style="fill:#A5BA6B;" points="384.017,500.628 74.891,500.628 29.532,183.109 429.377,183.109 "/>
<path d="M229.46,237.361c-0.778,0-1.568-0.084-2.346-0.239c-0.766-0.156-1.508-0.383-2.239-0.682
	c-0.718-0.299-1.413-0.67-2.059-1.101c-0.658-0.431-1.269-0.934-1.82-1.484c-2.239-2.227-3.507-5.315-3.507-8.463
	c0-0.778,0.072-1.568,0.227-2.346c0.156-0.766,0.383-1.508,0.682-2.239c0.299-0.718,0.67-1.413,1.101-2.059
	c0.443-0.658,0.934-1.269,1.496-1.82c0.551-0.563,1.161-1.053,1.82-1.496c0.646-0.431,1.341-0.802,2.059-1.101
	c0.73-0.299,1.472-0.527,2.239-0.682c3.891-0.778,8.032,0.491,10.81,3.28c0.551,0.551,1.053,1.161,1.484,1.82
	c0.431,0.646,0.802,1.341,1.101,2.059c0.299,0.73,0.527,1.472,0.682,2.239c0.156,0.778,0.239,1.568,0.239,2.346
	c0,3.148-1.281,6.237-3.507,8.463C235.697,236.08,232.607,237.361,229.46,237.361z"/>
<path d="M117.064,241.467c-0.778,0-1.568-0.084-2.334-0.239c-0.766-0.156-1.52-0.383-2.251-0.682
	c-0.718-0.299-1.413-0.67-2.059-1.101c-0.658-0.431-1.269-0.934-1.82-1.484c-0.551-0.551-1.053-1.161-1.496-1.82
	c-0.431-0.646-0.802-1.341-1.101-2.071c-0.299-0.718-0.527-1.472-0.682-2.239c-0.156-0.766-0.227-1.556-0.227-2.334
	c0-0.778,0.072-1.568,0.227-2.334c0.156-0.766,0.383-1.52,0.682-2.251c0.299-0.718,0.67-1.413,1.101-2.059
	c0.443-0.658,0.946-1.269,1.496-1.82s1.161-1.053,1.82-1.484c0.646-0.431,1.341-0.802,2.059-1.101
	c0.73-0.299,1.484-0.539,2.251-0.682c1.532-0.311,3.124-0.311,4.669,0c0.766,0.144,1.52,0.383,2.239,0.682
	c0.73,0.299,1.425,0.67,2.071,1.101c0.658,0.431,1.269,0.934,1.82,1.484s1.053,1.161,1.484,1.82
	c0.431,0.646,0.802,1.341,1.101,2.059c0.299,0.73,0.539,1.484,0.682,2.251c0.156,0.766,0.239,1.556,0.239,2.334
	c0,0.778-0.084,1.568-0.239,2.334c-0.144,0.766-0.383,1.52-0.682,2.239c-0.299,0.73-0.67,1.425-1.101,2.071
	c-0.431,0.658-0.934,1.269-1.484,1.82c-0.551,0.551-1.161,1.053-1.82,1.484c-0.646,0.431-1.341,0.802-2.071,1.101
	c-0.718,0.299-1.472,0.527-2.239,0.682C118.634,241.384,117.842,241.467,117.064,241.467z"/>
<path d="M341.841,241.467c-0.778,0-1.568-0.084-2.334-0.239c-0.766-0.144-1.52-0.383-2.239-0.682s-1.413-0.67-2.071-1.101
	c-0.646-0.431-1.269-0.934-1.82-1.484c-0.551-0.551-1.053-1.161-1.484-1.82c-0.431-0.646-0.802-1.341-1.101-2.071
	c-0.299-0.718-0.527-1.472-0.682-2.239c-0.156-0.766-0.239-1.556-0.239-2.334c0-0.778,0.084-1.568,0.239-2.334
	c0.156-0.766,0.383-1.52,0.682-2.251c0.299-0.718,0.67-1.413,1.101-2.059c0.431-0.658,0.934-1.269,1.484-1.82
	s1.173-1.053,1.82-1.496c0.658-0.431,1.353-0.79,2.071-1.089s1.472-0.539,2.239-0.694c1.544-0.311,3.136-0.311,4.681,0
	c0.766,0.156,1.508,0.395,2.239,0.694c0.718,0.299,1.413,0.658,2.059,1.089c0.658,0.443,1.269,0.946,1.82,1.496
	s1.053,1.161,1.496,1.82c0.431,0.646,0.802,1.341,1.101,2.059c0.299,0.73,0.527,1.484,0.682,2.251
	c0.156,0.766,0.227,1.556,0.227,2.334c0,0.778-0.072,1.568-0.227,2.334c-0.156,0.766-0.383,1.52-0.682,2.239
	c-0.299,0.73-0.67,1.425-1.101,2.071c-0.443,0.658-0.946,1.269-1.496,1.82c-0.551,0.551-1.161,1.053-1.82,1.484
	c-0.646,0.431-1.341,0.802-2.059,1.101c-0.73,0.299-1.472,0.539-2.239,0.682C343.411,241.384,342.631,241.467,341.841,241.467z"/>
<path style="fill:#E0E381;" d="M294.27,498.97L294.27,498.97c-36.693,0-66.438-29.745-66.438-66.438v-17.358h132.877v17.358
	C360.707,469.224,330.962,498.97,294.27,498.97z"/>
<circle style="fill:#93C6A2;" cx="229.458" cy="82.719" r="29.727"/>
<path d="M229.455,124.42c-22.992,0-41.698-18.706-41.698-41.698s18.706-41.698,41.698-41.698s41.698,18.706,41.698,41.698
	S252.448,124.42,229.455,124.42z M229.455,64.965c-9.791,0-17.756,7.965-17.756,17.756s7.965,17.756,17.756,17.756
	s17.756-7.965,17.756-17.756S239.245,64.965,229.455,64.965z"/>
<polygon style="fill:#FFC674;" points="414.466,374.754 44.443,374.754 33.103,299.911 425.805,299.911 "/>
<path d="M493.117,244.59c-3.018-5.882-10.234-8.205-16.115-5.187c-17.554,9.006-33.718,19.948-48.302,32.5l12.529-87.7
	c0.491-3.436-0.533-6.914-2.807-9.536c-2.273-2.622-5.574-4.128-9.044-4.128H285.734l-4.5-24.749
	c19.113-15.525,30.31-38.794,30.31-63.701c0-45.264-36.825-82.09-82.089-82.09s-82.09,36.826-82.09,82.09
	c0,24.907,11.198,48.176,30.31,63.701l-4.5,24.749H29.531c-3.47,0-6.77,1.506-9.044,4.128c-2.273,2.622-3.298,6.102-2.807,9.536
	l14.74,103.175c-3.233,0.186-6.269,1.658-8.393,4.129c-2.274,2.644-3.282,6.149-2.759,9.598l11.34,74.843
	c0.887,5.853,5.917,10.178,11.836,10.178h2.084l16.514,115.595c0.843,5.898,5.893,10.278,11.85,10.278h309.126
	c5.958,0,11.008-4.38,11.85-10.278l16.514-115.595h2.084c5.918,0,10.949-4.325,11.836-10.178l11.34-74.843
	c0.248-1.633,0.141-3.275-0.269-4.836c14.909-13.977,31.87-25.977,50.559-35.564C493.813,257.687,496.135,250.471,493.117,244.59z
	 M389.273,362.185c5.677-11.942,12.375-23.313,20.046-33.977l-5.149,33.977H389.273z M241.426,386.126h69.812l-2.063,17.076h-67.749
	L241.426,386.126L241.426,386.126z M335.353,386.126h19.101c-1.7,5.614-3.231,11.302-4.539,17.076H333.29L335.353,386.126z
	 M54.738,362.185l-7.713-50.901h345.023c-11.627,15.663-21.362,32.737-28.989,50.901H54.738z M171.307,82.09
	c0-32.063,26.086-58.148,58.148-58.148s58.147,26.086,58.147,58.148c0,19.559-9.754,37.696-26.092,48.517
	c-3.991,2.643-6.024,7.411-5.168,12.122l5.056,27.811h-63.89l5.056-27.811c0.856-4.711-1.176-9.477-5.168-12.122
	C181.061,119.785,171.307,101.648,171.307,82.09z M415.575,194.481l-13.266,92.859h-55.025l2.8-23.185
	c0.794-6.564-3.886-12.528-10.449-13.32c-6.562-0.8-12.527,3.885-13.32,10.449l-3.147,26.056h-81.743v-28.534
	c0-6.612-5.359-11.971-11.971-11.971c-6.612,0-11.971,5.359-11.971,11.971v28.534h-81.816l-3.075-25.457
	c-0.792-6.564-6.749-11.247-13.32-10.449c-6.564,0.792-11.242,6.756-10.449,13.32l2.728,22.587h-54.95l-13.265-92.859H415.575z
	 M85.273,488.058L70.712,386.126h52.772l8.028,66.467c0.734,6.076,5.899,10.537,11.869,10.537c0.479,0,0.964-0.029,1.451-0.087
	c6.564-0.792,11.242-6.756,10.449-13.32l-7.682-63.596h69.885v23.046c-1.026,1.766-1.623,3.811-1.623,6.001v17.358
	c0,5.504,0.577,10.874,1.66,16.061c0.087,1.441,0.42,2.816,0.973,4.075c3.615,13.592,10.789,25.746,20.473,35.391L85.273,488.058
	L85.273,488.058z M348.736,432.531c0,30.034-24.434,54.467-54.467,54.467l0,0c-30.034,0-54.467-24.434-54.467-54.467v-5.387h108.935
	V432.531z M373.636,488.058h-24.14c14.309-14.287,23.184-34.112,23.184-56.125v-17.358c0-0.798-0.101-1.584-0.28-2.347l0.028,0.006
	c1.86-8.909,4.26-17.618,7.138-26.107h8.632L373.636,488.058z"/>
<g>
</g>
<g>
</g>
<g>
</g>
<g>
</g>
<g>
</g>
<g>
</g>
<g>
</g>
<g>
</g>
<g>
</g>
<g>
</g>
<g>
</g>
<g>
</g>
<g>
</g>
<g>
</g>
<g>
</g>
</svg>
