<?xml version="1.0" encoding="iso-8859-1"?>
<!-- Generator: Adobe Illustrator 19.0.0, SVG Export Plug-In . SVG Version: 6.00 Build 0)  -->
<svg version="1.1" id="Layer_1" xmlns="http://www.w3.org/2000/svg" xmlns:xlink="http://www.w3.org/1999/xlink" x="0px" y="0px"
	 viewBox="0 0 512.001 512.001" style="enable-background:new 0 0 512.001 512.001;" xml:space="preserve">
<path style="fill:#FF5959;" d="M464.561,47.438C435.165,18.04,393.806,4.405,348.099,9.044
	c-44.52,4.516-87.997,25.965-122.429,60.394c-33.494,33.496-53.875,78.207-57.391,125.9c-2.845,38.606,5.819,73.854,24.017,99.482
	l-74.457,74.458l24.883,24.885l74.46-74.459c25.628,18.2,60.875,26.863,99.479,24.019c47.695-3.518,92.405-23.899,125.9-57.394
	c34.432-34.43,55.878-77.909,60.395-122.428C507.596,118.195,493.96,76.835,464.561,47.438z M420.547,264.312
	c-60.066,60.064-155.713,61.149-194.861,22c-47.876-47.876-27.112-145.746,22-194.859c59.788-59.786,147.201-69.653,194.859-22
	C490.201,117.11,480.335,204.526,420.547,264.312z"/>
<path style="fill:#333E48;" d="M145.853,401.295c3.303-3.301,3.303-8.708,0-12.009l-23.142-23.139
	c-3.301-3.304-8.706-3.304-12.009,0L10.629,466.222c-3.301,3.3-3.301,8.707,0,12.01l23.14,23.138c3.304,3.304,8.707,3.304,12.009,0
	L145.853,401.295z"/>
<g>
	
		<rect x="84.905" y="395.861" transform="matrix(-0.7071 -0.7071 0.7071 -0.7071 -97.0485 764.2619)" style="fill:#5C6670;" width="49.709" height="12.738"/>
	
		<rect x="65.563" y="415.215" transform="matrix(-0.7071 -0.7071 0.7071 -0.7071 -143.7503 783.6243)" style="fill:#5C6670;" width="49.711" height="12.737"/>
</g>
<circle style="fill:#6CC04A;" cx="117.893" cy="134.982" r="108.837"/>
<path style="fill:#1E252B;" d="M470.327,41.673c-31.162-31.162-74.86-45.631-123.051-40.741
	c-46.381,4.705-91.615,26.987-127.371,62.74c-1.802,1.802-3.571,3.657-5.315,5.536c-21.082-30.895-56.561-51.217-96.702-51.217
	c-64.509,0-116.992,52.483-116.992,116.994c0,64.51,52.483,116.993,116.993,116.993c15.833,0,30.939-3.168,44.725-8.893
	c3.507,18.812,10.027,36.074,19.191,50.697l-62.025,62.025c-1.003-0.186-2.031-0.289-3.074-0.289c-4.454,0-8.634,1.728-11.77,4.866
	L4.866,460.456C1.727,463.592,0,467.771,0,472.226c0,4.453,1.727,8.632,4.865,11.771l23.14,23.137
	c3.137,3.138,7.317,4.867,11.771,4.867s8.634-1.728,11.769-4.865l100.073-100.073c3.138-3.137,4.867-7.317,4.867-11.771
	c0-1.043-0.103-2.068-0.289-3.07l62.025-62.025c26.692,16.751,61.547,24.42,99.041,21.657
	c49.643-3.661,96.189-24.885,131.065-59.759c35.754-35.752,58.035-80.986,62.742-127.37
	C515.959,116.536,501.491,72.837,470.327,41.673z M300.768,89.372l21.815,21.816l-21.816,21.816l-21.816-21.816L300.768,89.372z
	 M298.654,64.195c2.676-1.364,5.369-2.648,8.077-3.847l-5.962,5.961L298.654,64.195z M434.157,199.699l-21.815-21.816l21.815-21.815
	l21.815,21.816L434.157,199.699z M451.657,205.263c-1.201,2.709-2.486,5.405-3.852,8.085l-2.117-2.117L451.657,205.263z
	 M367.462,266.395l-21.815-21.816l21.816-21.816l21.815,21.815L367.462,266.395z M368.516,290.51
	c-1.24,0.563-2.487,1.107-3.741,1.636l2.688-2.688L368.516,290.51z M312.298,211.231l21.818-21.817l21.816,21.817l-21.816,21.816
	L312.298,211.231z M322.585,244.579l-21.816,21.817l-21.816-21.817l21.816-21.816L322.585,244.579z M345.646,177.884l21.816-21.817
	l21.816,21.816L367.462,199.7L345.646,177.884z M378.994,144.535l21.815-21.815l21.816,21.816l-21.815,21.815L378.994,144.535z
	 M367.463,133.004l-21.816-21.816l21.816-21.816l21.815,21.816L367.463,133.004z M355.932,144.536l-21.816,21.816l-21.816-21.816
	l21.816-21.816L355.932,144.536z M322.585,177.884l-21.816,21.817l-21.816-21.817l21.816-21.817L322.585,177.884z M289.237,211.231
	l-21.818,21.819l-21.817-21.817l21.817-21.817L289.237,211.231z M255.889,244.579l-29.887,29.887
	c-7.182-8.936-11.836-18.891-14.767-28.867l22.837-22.837L255.889,244.579z M267.419,256.11l21.816,21.817l-22.252,22.252
	c-11.309-3.216-21.305-8.029-29.38-14.254L267.419,256.11z M300.767,289.459l14.841,14.841c-0.327,0.028-0.654,0.063-0.982,0.089
	c-9.801,0.778-19.329,0.61-28.356-0.433L300.767,289.459z M312.299,277.928l21.816-21.818l21.815,21.816l-21.816,21.816
	L312.299,277.928z M400.81,256.108l8.047,8.046c-7.77,6.994-16.208,13.17-25.171,18.463l-4.692-4.692L400.81,256.108z
	 M400.81,233.047l-21.815-21.815l21.816-21.817l21.815,21.816L400.81,233.047z M434.157,222.762l5.244,5.244
	c-5.465,8.539-11.799,16.805-18.986,24.648l-8.076-8.076L434.157,222.762z M445.689,144.536l17.301-17.302
	c1.927,11.307,2.144,23.193,0.676,35.28L445.689,144.536z M434.157,133.004l-21.816-21.816l29.94-29.94
	c6.921,8.297,12.21,17.651,15.897,27.735L434.157,133.004z M400.81,99.657l-21.815-21.816l24.02-24.02
	c10.085,3.687,19.44,8.975,27.737,15.896L400.81,99.657z M367.463,66.309l-17.975-17.975c12.085-1.466,23.969-1.251,35.273,0.676
	L367.463,66.309z M355.932,77.84l-21.816,21.816L312.3,77.84l21.815-21.816L355.932,77.84z M267.42,99.657l-8.075-8.074
	c7.843-7.186,16.109-13.521,24.648-18.987l5.243,5.243L267.42,99.657z M267.42,122.719l21.816,21.816l-21.818,21.817l-21.816-21.815
	L267.42,122.719z M234.848,132.229c-0.084-3.603-0.337-7.165-0.741-10.682c4.255-6.658,8.856-12.817,13.763-18.38l8.019,8.02
	L234.848,132.229z M255.889,177.884l-21.816,21.817l-11.839-11.839c4.823-9.479,8.387-19.699,10.482-30.438l1.358-1.358
	L255.889,177.884z M222.542,211.231l-15.066,15.066c-0.569-5.366-0.761-10.529-0.711-15.318c2.397-2.799,4.666-5.713,6.795-8.731
	L222.542,211.231z M203.903,82.692c9.306,15.252,14.674,33.157,14.674,52.292s-5.367,37.041-14.673,52.291
	c-20.69-8.981-34.216-29.288-34.216-52.291C169.689,111.98,183.213,91.673,203.903,82.692z M31.876,187.275
	c-9.306-15.249-14.673-33.156-14.673-52.291c0-19.137,5.368-37.042,14.673-52.292c20.69,8.981,34.214,29.289,34.214,52.292
	S52.565,178.294,31.876,187.275z M117.889,235.672c-30.424,0-57.739-13.566-76.216-34.962c24.751-12.213,40.723-37.38,40.723-65.724
	c0-28.345-15.971-53.513-40.722-65.725c18.477-21.398,45.791-34.962,76.214-34.962s57.738,13.566,76.216,34.962
	c-24.75,12.212-40.722,37.38-40.722,65.725c0,28.343,15.971,53.511,40.723,65.724C175.628,222.106,148.313,235.672,117.889,235.672z
	 M140.088,395.53L40.012,495.606c-0.024,0.024-0.088,0.088-0.237,0.088c-0.15,0-0.215-0.065-0.24-0.09l-23.139-23.137
	c-0.023-0.023-0.089-0.089-0.089-0.241c0-0.151,0.065-0.216,0.088-0.239L116.47,371.91c0.022-0.022,0.088-0.088,0.238-0.088
	s0.215,0.066,0.239,0.09l23.144,23.142c0.022,0.022,0.087,0.087,0.087,0.237S140.111,395.508,140.088,395.53z M494.844,163.077
	c-4.328,42.659-24.943,84.383-58.047,117.485c-32.113,32.111-74.99,51.654-120.734,55.029c-36.473,2.689-69.913-5.317-94.159-22.535
	c-3.242-2.302-7.674-1.928-10.486,0.883l-64.692,64.69l-13.354-13.351l64.69-64.692c2.812-2.812,3.185-7.243,0.883-10.487
	c-10.63-14.97-17.871-33.792-21.102-54.689c4.623-2.771,9.039-5.852,13.221-9.214c2.461,26.763,12.277,49.3,28.858,65.881
	c18.595,18.596,48.865,29.1,82.719,29.099c4.371,0,8.805-0.175,13.277-0.531c41.909-3.33,81.114-21.289,110.393-50.567
	c62.967-62.965,72.836-155.551,21.999-206.39c-50.838-50.832-143.424-40.966-206.389,22.001c-4.343,4.343-8.498,9.068-12.44,14.135
	c-1.722-5.452-3.832-10.733-6.298-15.809c2.659-3.024,5.419-5.978,8.253-8.811c33.108-33.106,74.832-53.721,117.487-58.047
	c43.225-4.387,82.241,8.415,109.872,36.048C486.43,80.836,499.233,119.857,494.844,163.077z"/>
<g>
</g>
<g>
</g>
<g>
</g>
<g>
</g>
<g>
</g>
<g>
</g>
<g>
</g>
<g>
</g>
<g>
</g>
<g>
</g>
<g>
</g>
<g>
</g>
<g>
</g>
<g>
</g>
<g>
</g>
</svg>
